<?xml version="1.0" encoding="UTF-8"?>
<svg xmlns="http://www.w3.org/2000/svg" xmlns:xlink="http://www.w3.org/1999/xlink" width="639pt" height="103.36pt" viewBox="0 0 639 103.36"><!--latexit:AAAJV3jatVVbbBRlFD5/mYGlXHbacr/IYBcpAnXb7W67RbCFSqnAFti2LO2WdXb2
7+7Q2Zl1ZralLpv8D8SEgDEIXh68UTABQhCNEmN89IJKjBa8PBgTHrwlPqESE148
M7uUxZR6ie4kM/855zvnfN8/c/6NZ1TFtLzeq6RsCsdPnVYe8QxRw1R0bY9HMuSU
glaXx9IzEY8e30dly6wE8sQrMcEdCm+lIzTRWgR97preZei6xchrwvIZM1fct7Jm
1f2r16ytfcC/7sGWtke27tzV27dXogP70hkr2+3Rsqp6ZdZst7DIszsUrh2kI2Yv
PotNejyyKpnmmYrKqjlz581fsJCVsSmMYzybyqYxF5vOys8sXrL0nmXi8nur2Qw2
k81mblbBFrHFbCm7h4mRuGRSVdFot6yrutGV1hO021IslUYyBpXScZX2p6Wkpgwo
smSh3K6EZFGUFZfkwaShZ7XEJjux19Szhky76H6rumX1b6cO0+rMFW+du97X0B0K
72rfGA2FHWA4I8m0U1hcJ3prfb5Afb3f6/Xh2h9saqz3BxsbAiAQNmss0NgU7C2o
06Q0jRSW1NxdrDPa1BwJhTudbRBgzL1+w0N7cF9My1C0JBN2YIHWjc72b89aEsoI
O5GTrZvsvIJx5WH35vYtHeM2cmy1cBXPWtRklWwhq9IrSBtEIQE6yJCFNFDQwMK1
ChKYePVBHGMGIije10MdeJ0rg6g1MIQoA4ZBwbgFKeiHHOZY6NXQI2EVHVcU8lCO
XbIYo5gpYf1BvCfR6it6NbTt7qZTQ8Y81embBxFWYI6OOAPXNi/RiWdxTR3v3Wrn
nJq2ihF8xou10ui1uZp/mXcL+XfzbC0WDECTo0FBTRnHY6uTi1VsW3GYiyWq7B3L
ODss4r4p+KSYYWfeeiOik2M62u09l5z4jw7S9tq2XMRm4adJ1cUdv4l+AxnoyNic
5A3lkEMK7ZTDZjLcLcwAKkhOijQRkUavrcn+euxY3j4GtoV2nNjO5pzoZHPZgp5Q
eLOuWVfDXd3unt2RPWiHlccpfs8Dm1UpaaIdwtmpbqkB5ycIbB6b37Nd1yRZxwGJ
9hcrjEab0Yw9igPQpsj2mEvGyGjMdsblmFBZMheJwqiMJpon9Fe3bCz0Gku6U4p9
YlkKMmi9NPXc2dPkGFuCJQdVbNuGx8joYLN9Rmi+hk5hpbc26K0L+gPBRr9fLBhN
vmBjoKFoBPDmDwCbZU/tY1s62DJ7PmMVZUeiMkowJId3LqpKWlKlovdAPhdNSZYo
xXLRtGSl4gNiZmU+nyu4oxlT2ZuLJqRkkhr5mpFV+fLSMn31dH9/Sa0JKk1cZbx4
iZFS7oiUJAz/ua3v37X9h03H4cOl8OH/aA9KyJRQmVh97q5Uii/vNrykcR6J/p+0
SkiVUJqM0AFv1HAI4ec9NBwTqsb/dm7P08mhWDO4oAIWgQdWQT00Qgdsg50QxhHP
w0E4As/BS3AazsI5OA8X4A14Ey7C2/AOvAcfwCX4GC7Dp/AZjMFV+BK+hmvwA/wM
1+EmmU5mE5GsJg1kHWklIaISjWRIljByiBwlx8mL5GVyipwnF8jr5CK5RC6TL8g3
5DtynfxKbpDfuYPcYe5J7inuKHeMe4Z7gXuVO8e9xb3Lvc99yH3EfcKNcV9x33LX
uO+5X7gb3E1e4Kv4Gr6OD/Ab+Ha+gw/x3XyEj/GH+MP80/xx/ln+eVeNa61rU+Es
KCOFJ+yHO36u9j8A+rvHHw==-->
<defs>
<g>
<g id="glyph-0-0">
<path d="M 11.6875 -25.375 C 11.875 -25.765625 11.875 -25.84375 11.875 -26.015625 C 11.875 -26.40625 11.546875 -26.734375 11.15625 -26.734375 C 10.828125 -26.734375 10.578125 -26.546875 10.328125 -25.90625 L 4.09375 -9.546875 C 4.03125 -9.34375 3.921875 -9.125 3.921875 -8.90625 C 3.921875 -8.796875 3.921875 -8.734375 4.09375 -8.296875 L 10.328125 8.0625 C 10.484375 8.453125 10.65625 8.90625 11.15625 8.90625 C 11.546875 8.90625 11.875 8.59375 11.875 8.203125 C 11.875 8.09375 11.875 8.015625 11.6875 7.625 L 5.375 -8.90625 Z M 11.6875 -25.375 "/>
</g>
<g id="glyph-0-1">
<path d="M 9.734375 -8.296875 C 9.90625 -8.734375 9.90625 -8.796875 9.90625 -8.90625 C 9.90625 -9.015625 9.90625 -9.09375 9.734375 -9.515625 L 3.5 -25.90625 C 3.28125 -26.515625 3.0625 -26.734375 2.671875 -26.734375 C 2.28125 -26.734375 1.953125 -26.40625 1.953125 -26.015625 C 1.953125 -25.90625 1.953125 -25.84375 2.140625 -25.453125 L 8.453125 -8.90625 L 2.140625 7.5625 C 1.953125 7.953125 1.953125 8.015625 1.953125 8.203125 C 1.953125 8.59375 2.28125 8.90625 2.671875 8.90625 C 3.140625 8.90625 3.28125 8.546875 3.421875 8.203125 Z M 9.734375 -8.296875 "/>
</g>
<g id="glyph-1-0">
<path d="M 16.390625 -11.40625 C 16.390625 -14.25 16.21875 -17.109375 14.96875 -19.75 C 13.328125 -23.171875 10.40625 -23.734375 8.90625 -23.734375 C 6.765625 -23.734375 4.171875 -22.8125 2.703125 -19.5 C 1.5625 -17.03125 1.390625 -14.25 1.390625 -11.40625 C 1.390625 -8.734375 1.53125 -5.53125 3 -2.8125 C 4.53125 0.078125 7.125 0.78125 8.875 0.78125 C 10.796875 0.78125 13.515625 0.03125 15.078125 -3.34375 C 16.21875 -5.8125 16.390625 -8.59375 16.390625 -11.40625 Z M 8.875 0 C 7.484375 0 5.375 -0.890625 4.734375 -4.3125 C 4.34375 -6.453125 4.34375 -9.734375 4.34375 -11.828125 C 4.34375 -14.109375 4.34375 -16.46875 4.640625 -18.390625 C 5.3125 -22.625 7.984375 -22.953125 8.875 -22.953125 C 10.046875 -22.953125 12.40625 -22.3125 13.078125 -18.78125 C 13.4375 -16.78125 13.4375 -14.078125 13.4375 -11.828125 C 13.4375 -9.15625 13.4375 -6.734375 13.046875 -4.453125 C 12.515625 -1.0625 10.484375 0 8.875 0 Z M 8.875 0 "/>
</g>
<g id="glyph-1-1">
<path d="M 8.90625 -24.734375 L 4.140625 -19.890625 L 4.78125 -19.25 L 8.90625 -22.875 L 13.015625 -19.25 L 13.65625 -19.890625 Z M 8.90625 -24.734375 "/>
</g>
<g id="glyph-1-2">
<path d="M 11.796875 8.546875 C 11.796875 8.453125 11.796875 8.375 11.1875 7.765625 C 6.734375 3.28125 5.59375 -3.453125 5.59375 -8.90625 C 5.59375 -15.109375 6.953125 -21.3125 11.328125 -25.765625 C 11.796875 -26.203125 11.796875 -26.265625 11.796875 -26.375 C 11.796875 -26.625 11.65625 -26.734375 11.4375 -26.734375 C 11.078125 -26.734375 7.875 -24.3125 5.78125 -19.78125 C 3.953125 -15.859375 3.53125 -11.90625 3.53125 -8.90625 C 3.53125 -6.125 3.921875 -1.8125 5.875 2.203125 C 8.015625 6.59375 11.078125 8.90625 11.4375 8.90625 C 11.65625 8.90625 11.796875 8.796875 11.796875 8.546875 Z M 11.796875 8.546875 "/>
</g>
<g id="glyph-1-3">
<path d="M 10.296875 -8.90625 C 10.296875 -11.6875 9.90625 -16 7.953125 -20.03125 C 5.8125 -24.40625 2.75 -26.734375 2.390625 -26.734375 C 2.171875 -26.734375 2.03125 -26.59375 2.03125 -26.375 C 2.03125 -26.265625 2.03125 -26.203125 2.703125 -25.546875 C 6.203125 -22.03125 8.234375 -16.359375 8.234375 -8.90625 C 8.234375 -2.8125 6.921875 3.453125 2.5 7.953125 C 2.03125 8.375 2.03125 8.453125 2.03125 8.546875 C 2.03125 8.765625 2.171875 8.90625 2.390625 8.90625 C 2.75 8.90625 5.953125 6.484375 8.0625 1.953125 C 9.875 -1.953125 10.296875 -5.921875 10.296875 -8.90625 Z M 10.296875 -8.90625 "/>
</g>
<g id="glyph-2-0">
<path d="M 5.671875 -25.453125 C 5.671875 -26.09375 5.671875 -26.734375 4.953125 -26.734375 C 4.234375 -26.734375 4.234375 -26.09375 4.234375 -25.453125 L 4.234375 7.625 C 4.234375 8.265625 4.234375 8.90625 4.953125 8.90625 C 5.671875 8.90625 5.671875 8.265625 5.671875 7.625 Z M 5.671875 -25.453125 "/>
</g>
<g id="glyph-3-0">
<path d="M 13.296875 -13.46875 C 12.65625 -14.796875 11.625 -15.75 10.015625 -15.75 C 5.84375 -15.75 1.421875 -10.515625 1.421875 -5.3125 C 1.421875 -1.953125 3.390625 0.390625 6.171875 0.390625 C 6.875 0.390625 8.65625 0.25 10.796875 -2.28125 C 11.078125 -0.78125 12.328125 0.390625 14.046875 0.390625 C 15.296875 0.390625 16.109375 -0.421875 16.6875 -1.5625 C 17.28125 -2.84375 17.75 -5.03125 17.75 -5.09375 C 17.75 -5.453125 17.421875 -5.453125 17.328125 -5.453125 C 16.96875 -5.453125 16.921875 -5.3125 16.828125 -4.8125 C 16.21875 -2.5 15.578125 -0.390625 14.109375 -0.390625 C 13.15625 -0.390625 13.046875 -1.3125 13.046875 -2.03125 C 13.046875 -2.8125 13.109375 -3.09375 13.515625 -4.671875 C 13.90625 -6.171875 13.96875 -6.515625 14.296875 -7.875 L 15.578125 -12.859375 C 15.828125 -13.859375 15.828125 -13.9375 15.828125 -14.078125 C 15.828125 -14.6875 15.390625 -15.046875 14.796875 -15.046875 C 13.9375 -15.046875 13.40625 -14.25 13.296875 -13.46875 Z M 10.984375 -4.234375 C 10.796875 -3.59375 10.796875 -3.53125 10.265625 -2.921875 C 8.703125 -0.96875 7.234375 -0.390625 6.234375 -0.390625 C 4.453125 -0.390625 3.953125 -2.359375 3.953125 -3.75 C 3.953125 -5.53125 5.09375 -9.90625 5.921875 -11.546875 C 7.015625 -13.65625 8.625 -14.96875 10.046875 -14.96875 C 12.375 -14.96875 12.859375 -12.046875 12.859375 -11.828125 C 12.859375 -11.625 12.796875 -11.40625 12.765625 -11.234375 Z M 10.984375 -4.234375 "/>
</g>
<g id="glyph-3-1">
<path d="M 17.328125 -13.578125 C 17.46875 -14.078125 17.46875 -14.15625 17.46875 -14.40625 C 17.46875 -15.046875 16.96875 -15.359375 16.4375 -15.359375 C 16.078125 -15.359375 15.5 -15.140625 15.1875 -14.609375 C 15.109375 -14.4375 14.828125 -13.328125 14.6875 -12.6875 C 14.4375 -11.765625 14.1875 -10.796875 13.96875 -9.84375 L 12.375 -3.421875 C 12.21875 -2.890625 10.6875 -0.390625 8.34375 -0.390625 C 6.515625 -0.390625 6.125 -1.953125 6.125 -3.28125 C 6.125 -4.921875 6.734375 -7.125 7.953125 -10.265625 C 8.515625 -11.71875 8.65625 -12.125 8.65625 -12.828125 C 8.65625 -14.4375 7.515625 -15.75 5.734375 -15.75 C 2.359375 -15.75 1.03125 -10.578125 1.03125 -10.265625 C 1.03125 -9.90625 1.390625 -9.90625 1.46875 -9.90625 C 1.8125 -9.90625 1.859375 -9.984375 2.03125 -10.546875 C 3 -13.90625 4.421875 -14.96875 5.625 -14.96875 C 5.921875 -14.96875 6.515625 -14.96875 6.515625 -13.828125 C 6.515625 -12.9375 6.171875 -12.015625 5.921875 -11.328125 C 4.484375 -7.5625 3.84375 -5.53125 3.84375 -3.84375 C 3.84375 -0.671875 6.09375 0.390625 8.203125 0.390625 C 9.59375 0.390625 10.796875 -0.21875 11.796875 -1.21875 C 11.328125 0.640625 10.90625 2.390625 9.484375 4.28125 C 8.546875 5.484375 7.203125 6.515625 5.5625 6.515625 C 5.0625 6.515625 3.453125 6.421875 2.84375 5.03125 C 3.421875 5.03125 3.890625 5.03125 4.390625 4.59375 C 4.734375 4.28125 5.09375 3.8125 5.09375 3.140625 C 5.09375 2.03125 4.140625 1.890625 3.78125 1.890625 C 2.953125 1.890625 1.78125 2.453125 1.78125 4.203125 C 1.78125 5.984375 3.34375 7.3125 5.5625 7.3125 C 9.234375 7.3125 12.90625 4.0625 13.90625 0.03125 Z M 17.328125 -13.578125 "/>
</g>
<g id="glyph-3-2">
<path d="M 16.46875 -12.078125 C 16.640625 -12.859375 17 -14.1875 17 -14.40625 C 17 -15.046875 16.5 -15.359375 15.96875 -15.359375 C 15.546875 -15.359375 14.890625 -15.078125 14.640625 -14.359375 C 14.546875 -14.109375 12.859375 -7.3125 12.609375 -6.375 C 12.375 -5.3125 12.296875 -4.671875 12.296875 -4.03125 C 12.296875 -3.640625 12.296875 -3.5625 12.328125 -3.390625 C 11.515625 -1.5 10.4375 -0.390625 9.046875 -0.390625 C 6.203125 -0.390625 6.203125 -3.03125 6.203125 -3.640625 C 6.203125 -4.78125 6.375 -6.171875 8.0625 -10.546875 C 8.453125 -11.625 8.65625 -12.125 8.65625 -12.828125 C 8.65625 -14.4375 7.484375 -15.75 5.734375 -15.75 C 2.359375 -15.75 1.03125 -10.578125 1.03125 -10.265625 C 1.03125 -9.90625 1.390625 -9.90625 1.46875 -9.90625 C 1.8125 -9.90625 1.859375 -9.984375 2.03125 -10.546875 C 3 -13.859375 4.390625 -14.96875 5.625 -14.96875 C 5.953125 -14.96875 6.515625 -14.9375 6.515625 -13.796875 C 6.515625 -12.90625 6.125 -11.90625 5.875 -11.296875 C 4.3125 -7.09375 3.890625 -5.453125 3.890625 -4.09375 C 3.890625 -0.859375 6.265625 0.390625 8.953125 0.390625 C 9.546875 0.390625 11.234375 0.390625 12.65625 -2.109375 C 13.578125 0.171875 16.03125 0.390625 17.109375 0.390625 C 19.78125 0.390625 21.34375 -1.859375 22.28125 -3.984375 C 23.484375 -6.765625 24.625 -11.546875 24.625 -13.265625 C 24.625 -15.21875 23.671875 -15.75 23.0625 -15.75 C 22.171875 -15.75 21.28125 -14.828125 21.28125 -14.046875 C 21.28125 -13.578125 21.484375 -13.359375 21.8125 -13.078125 C 22.203125 -12.6875 23.09375 -11.765625 23.09375 -10.046875 C 23.09375 -8.84375 22.0625 -5.34375 21.140625 -3.53125 C 20.203125 -1.640625 18.953125 -0.390625 17.21875 -0.390625 C 15.546875 -0.390625 14.578125 -1.46875 14.578125 -3.5 C 14.578125 -4.484375 14.828125 -5.59375 14.96875 -6.09375 Z M 16.46875 -12.078125 "/>
</g>
<g id="glyph-4-0">
<path d="M 7.890625 3.4375 L 6.21875 3.4375 L 6.21875 -0.921875 C 6.84375 -0.5 8.0625 0.15625 9.8125 0.15625 C 14.09375 0.15625 16.71875 -2.265625 16.71875 -5.5625 C 16.71875 -8.578125 14.546875 -11.234375 10.3125 -11.234375 C 9.015625 -11.234375 7.484375 -10.984375 6.03125 -10.078125 L 6.03125 -11.234375 L 1.375 -11.03125 L 1.375 -9.625 C 1.796875 -9.625 2.296875 -9.625 2.625 -9.578125 C 3.046875 -9.5 3.046875 -9.234375 3.046875 -8.765625 L 3.046875 3.4375 L 1.375 3.4375 L 1.375 4.84375 C 1.390625 4.84375 3.421875 4.734375 4.609375 4.734375 C 5.84375 4.734375 7.859375 4.84375 7.890625 4.84375 Z M 6.21875 -7.984375 C 6.21875 -8.453125 6.234375 -8.484375 6.59375 -8.8125 C 7.78125 -9.859375 9.25 -9.953125 9.78125 -9.953125 C 11.90625 -9.953125 13.25 -8.265625 13.25 -5.5625 C 13.25 -2.328125 11.375 -1 9.484375 -1 C 7.578125 -1 6.515625 -2.34375 6.21875 -2.765625 Z M 6.21875 -7.984375 "/>
</g>
<g id="glyph-5-0">
<path d="M 6.421875 -8.296875 C 6.4375 -8.3125 6.59375 -8.640625 6.59375 -8.921875 C 6.59375 -9.5625 6.03125 -9.96875 5.484375 -9.96875 C 4.765625 -9.96875 4.5625 -9.40625 4.46875 -9.140625 L 1.734375 -1.421875 C 1.65625 -1.21875 1.65625 -1.15625 1.65625 -1.140625 C 1.65625 -0.859375 2.40625 -0.671875 2.421875 -0.671875 C 2.578125 -0.671875 2.625 -0.765625 2.734375 -0.984375 Z M 6.421875 -8.296875 "/>
</g>
<g id="glyph-6-0">
<path d="M 17.171875 -23.8125 C 17.21875 -23.953125 17.28125 -24.171875 17.28125 -24.34375 C 17.28125 -24.703125 17.03125 -24.734375 16.859375 -24.734375 C 16.5 -24.734375 16.46875 -24.65625 16.328125 -24.015625 L 10.40625 -0.46875 C 7.703125 -0.78125 6.34375 -2.109375 6.34375 -4.453125 C 6.34375 -5.171875 6.34375 -6.09375 8.265625 -11.078125 C 8.40625 -11.515625 8.65625 -12.125 8.65625 -12.828125 C 8.65625 -14.4375 7.515625 -15.75 5.734375 -15.75 C 2.359375 -15.75 1.03125 -10.578125 1.03125 -10.265625 C 1.03125 -9.90625 1.390625 -9.90625 1.46875 -9.90625 C 1.8125 -9.90625 1.859375 -9.984375 2.03125 -10.546875 C 3 -13.9375 4.421875 -14.96875 5.625 -14.96875 C 5.921875 -14.96875 6.515625 -14.96875 6.515625 -13.828125 C 6.515625 -12.90625 6.171875 -12.015625 5.703125 -10.765625 C 3.984375 -6.265625 3.984375 -5.34375 3.984375 -4.734375 C 3.984375 -1.359375 6.765625 0.109375 10.1875 0.328125 C 9.90625 1.609375 9.90625 1.671875 9.40625 3.5625 C 9.296875 3.953125 8.59375 6.84375 8.59375 6.953125 C 8.59375 6.984375 8.59375 7.3125 9.015625 7.3125 C 9.09375 7.3125 9.265625 7.3125 9.34375 7.15625 C 9.4375 7.09375 9.65625 6.203125 9.765625 5.703125 L 11.125 0.390625 C 12.4375 0.390625 15.578125 0.390625 18.921875 -3.421875 C 20.390625 -5.0625 21.140625 -6.625 21.53125 -7.703125 C 21.84375 -8.59375 22.625 -11.6875 22.625 -13.265625 C 22.625 -15.25 21.671875 -15.75 21.0625 -15.75 C 20.171875 -15.75 19.28125 -14.828125 19.28125 -14.046875 C 19.28125 -13.578125 19.5 -13.359375 19.8125 -13.078125 C 20.203125 -12.6875 21.09375 -11.765625 21.09375 -10.046875 C 21.09375 -7.765625 19.25 -4.84375 18 -3.5625 C 14.859375 -0.390625 12.578125 -0.390625 11.296875 -0.390625 Z M 17.171875 -23.8125 "/>
</g>
<g id="glyph-6-1">
<path d="M 15.578125 -23.875 C 15.578125 -23.953125 15.6875 -24.34375 15.6875 -24.375 C 15.6875 -24.40625 15.6875 -24.734375 15.25 -24.734375 C 14.890625 -24.734375 14.859375 -24.625 14.71875 -24.015625 L 12.65625 -15.78125 C 6.984375 -15.609375 1.75 -10.875 1.75 -6.015625 C 1.75 -2.640625 4.234375 0.171875 8.59375 0.421875 C 8.296875 1.53125 8.0625 2.671875 7.765625 3.78125 C 7.34375 5.453125 6.984375 6.8125 6.984375 6.921875 C 6.984375 7.265625 7.234375 7.3125 7.40625 7.3125 C 7.59375 7.3125 7.65625 7.265625 7.765625 7.15625 C 7.84375 7.09375 8.0625 6.234375 8.15625 5.734375 L 9.515625 0.421875 C 15.25 0.25 20.421875 -4.5625 20.421875 -9.34375 C 20.421875 -12.15625 18.53125 -15.4375 13.578125 -15.78125 Z M 8.765625 -0.359375 C 6.625 -0.46875 4.0625 -1.703125 4.0625 -5.28125 C 4.0625 -9.546875 7.125 -14.546875 12.4375 -15 Z M 13.359375 -15 C 16.078125 -14.859375 18.109375 -13.21875 18.109375 -10.09375 C 18.109375 -5.875 15.046875 -0.78125 9.6875 -0.359375 Z M 13.359375 -15 "/>
</g>
<g id="glyph-7-0">
<path d="M 6.84375 -10.4375 C 7.21875 -10.375 7.46875 -10.359375 8.203125 -10.15625 C 9.015625 -9.9375 9.609375 -9.78125 10.078125 -9.78125 C 11.046875 -9.78125 11.15625 -10.53125 11.15625 -10.75 C 11.15625 -10.953125 11.046875 -11.734375 10.078125 -11.734375 C 9.609375 -11.734375 9.015625 -11.578125 8.203125 -11.359375 C 7.46875 -11.15625 7.21875 -11.125 6.84375 -11.078125 C 6.890625 -11.953125 7.0625 -13 7.1875 -13.78125 C 7.28125 -14.265625 7.515625 -15.546875 7.515625 -16.421875 C 7.515625 -17.171875 7.15625 -17.5625 6.53125 -17.5625 C 6.015625 -17.5625 5.5625 -17.296875 5.5625 -16.421875 C 5.5625 -15.59375 5.765625 -14.34375 5.90625 -13.5 C 5.96875 -13.21875 6.1875 -12 6.234375 -11.078125 C 5.859375 -11.125 5.609375 -11.15625 4.859375 -11.359375 C 4.0625 -11.578125 3.46875 -11.734375 3 -11.734375 C 2.015625 -11.734375 1.921875 -10.984375 1.921875 -10.75 C 1.921875 -10.5625 2.015625 -9.78125 3 -9.78125 C 3.46875 -9.78125 4.0625 -9.9375 4.859375 -10.15625 C 5.609375 -10.359375 5.859375 -10.375 6.234375 -10.4375 C 6.1875 -9.8125 6.015625 -9.015625 5.890625 -8.484375 C 5.5625 -6.9375 5.5625 -6.765625 5.5625 -5.46875 C 5.5625 -0.65625 6.03125 4.46875 6.109375 4.96875 C 6.140625 5.1875 6.1875 5.34375 6.53125 5.34375 C 6.90625 5.34375 6.9375 5.1875 6.984375 4.84375 C 6.984375 4.8125 7.1875 2.640625 7.28125 1.125 C 7.40625 -1.078125 7.515625 -3.265625 7.515625 -5.46875 C 7.515625 -6.765625 7.515625 -6.9375 7.15625 -8.53125 C 7.109375 -8.8125 6.890625 -9.8125 6.84375 -10.4375 Z M 6.84375 -10.4375 "/>
</g>
</g>
<clipPath id="clip-0">
<path clip-rule="nonzero" d="M 278 0.179688 L 281 0.179688 L 281 48 L 278 48 Z M 278 0.179688 "/>
</clipPath>
<clipPath id="clip-1">
<path clip-rule="nonzero" d="M 279 0.179688 L 526 0.179688 L 526 3 L 279 3 Z M 279 0.179688 "/>
</clipPath>
<clipPath id="clip-2">
<path clip-rule="nonzero" d="M 524 0.179688 L 527 0.179688 L 527 48 L 524 48 Z M 524 0.179688 "/>
</clipPath>
</defs>
<path fill="none" stroke-width="0.498" stroke-linecap="butt" stroke-linejoin="miter" stroke="rgb(0%, 0%, 0%)" stroke-opacity="1" stroke-miterlimit="10" d="M -0.000151982 0.000168752 L -0.000151982 4.288713 " transform="matrix(3.577846, 0, 0, -3.577846, 64.859919, 55.672479)"/>
<path fill="none" stroke-width="0.498" stroke-linecap="butt" stroke-linejoin="miter" stroke="rgb(0%, 0%, 0%)" stroke-opacity="1" stroke-miterlimit="10" d="M -0.000224286 -0.000123339 L 18.728309 -0.000123339 " transform="matrix(3.577846, 0, 0, -3.577846, 65.750802, 41.214402)"/>
<path fill="none" stroke-width="0.498" stroke-linecap="butt" stroke-linejoin="miter" stroke="rgb(0%, 0%, 0%)" stroke-opacity="1" stroke-miterlimit="10" d="M 0.000328963 0.000168752 L 0.000328963 4.288713 " transform="matrix(3.577846, 0, 0, -3.577846, 133.651167, 55.672479)"/>
<path fill="none" stroke-width="0.498" stroke-linecap="butt" stroke-linejoin="miter" stroke="rgb(0%, 0%, 0%)" stroke-opacity="1" stroke-miterlimit="10" d="M -0.000338445 0.000194595 L -0.000338445 8.579466 " transform="matrix(3.577846, 0, 0, -3.577846, 210.270742, 46.266321)"/>
<path fill="none" stroke-width="0.498" stroke-linecap="butt" stroke-linejoin="miter" stroke="rgb(0%, 0%, 0%)" stroke-opacity="1" stroke-miterlimit="10" d="M -0.000410749 0.000538108 L 41.918795 0.000538108 " transform="matrix(3.577846, 0, 0, -3.577846, 211.161626, 16.462863)"/>
<path fill="none" stroke-width="0.498" stroke-linecap="butt" stroke-linejoin="miter" stroke="rgb(0%, 0%, 0%)" stroke-opacity="1" stroke-miterlimit="10" d="M -0.000277391 0.000194595 L -0.000277391 8.579466 " transform="matrix(3.577846, 0, 0, -3.577846, 362.032242, 46.266321)"/>
<g clip-path="url(#clip-0)">
<path fill="none" stroke-width="0.498" stroke-linecap="butt" stroke-linejoin="miter" stroke="rgb(0%, 0%, 0%)" stroke-opacity="1" stroke-miterlimit="10" d="M 0.000176417 0.000194595 L 0.000176417 12.86801 " transform="matrix(3.577846, 0, 0, -3.577846, 279.616556, 46.266321)"/>
</g>
<g clip-path="url(#clip-1)">
<path fill="none" stroke-width="0.498" stroke-linecap="butt" stroke-linejoin="miter" stroke="rgb(0%, 0%, 0%)" stroke-opacity="1" stroke-miterlimit="10" d="M 0.000104113 0.000173713 L 68.14952 0.000173713 " transform="matrix(3.577846, 0, 0, -3.577846, 280.50744, 1.113903)"/>
</g>
<g clip-path="url(#clip-2)">
<path fill="none" stroke-width="0.498" stroke-linecap="butt" stroke-linejoin="miter" stroke="rgb(0%, 0%, 0%)" stroke-opacity="1" stroke-miterlimit="10" d="M 0.000539339 0.000194595 L 0.000539339 12.86801 " transform="matrix(3.577846, 0, 0, -3.577846, 525.228539, 46.266321)"/>
</g>
<path fill="none" stroke-width="0.498" stroke-linecap="butt" stroke-linejoin="miter" stroke="rgb(0%, 0%, 0%)" stroke-opacity="1" stroke-miterlimit="10" d="M -0.000387857 0.000194595 L -0.000387857 8.579466 " transform="matrix(3.577846, 0, 0, -3.577846, 446.376388, 46.266321)"/>
<path fill="none" stroke-width="0.498" stroke-linecap="butt" stroke-linejoin="miter" stroke="rgb(0%, 0%, 0%)" stroke-opacity="1" stroke-miterlimit="10" d="M -0.000460161 0.000538108 L 37.469709 0.000538108 " transform="matrix(3.577846, 0, 0, -3.577846, 447.267271, 16.462863)"/>
<path fill="none" stroke-width="0.498" stroke-linecap="butt" stroke-linejoin="miter" stroke="rgb(0%, 0%, 0%)" stroke-opacity="1" stroke-miterlimit="10" d="M -0.000363476 0.000194595 L -0.000363476 8.579466 " transform="matrix(3.577846, 0, 0, -3.577846, 582.22005, 46.266321)"/>
<g fill="rgb(0%, 0%, 0%)" fill-opacity="1">
<use xlink:href="#glyph-0-0" x="-1.709686" y="88.098697"/>
</g>
<g fill="rgb(0%, 0%, 0%)" fill-opacity="1">
<use xlink:href="#glyph-1-0" x="12.15089" y="88.098697"/>
</g>
<g fill="rgb(0%, 0%, 0%)" fill-opacity="1">
<use xlink:href="#glyph-2-0" x="29.97572" y="88.098697"/>
</g>
<g fill="rgb(0%, 0%, 0%)" fill-opacity="1">
<use xlink:href="#glyph-1-1" x="40.376519" y="88.098697"/>
</g>
<g fill="rgb(0%, 0%, 0%)" fill-opacity="1">
<use xlink:href="#glyph-3-0" x="39.87562" y="88.098697"/>
</g>
<g fill="rgb(0%, 0%, 0%)" fill-opacity="1">
<use xlink:href="#glyph-4-0" x="58.716558" y="93.443999"/>
</g>
<g fill="rgb(0%, 0%, 0%)" fill-opacity="1">
<use xlink:href="#glyph-5-0" x="76.63799" y="86.31693"/>
</g>
<g fill="rgb(0%, 0%, 0%)" fill-opacity="1">
<use xlink:href="#glyph-1-1" x="95.360858" y="78.69254"/>
</g>
<g fill="rgb(0%, 0%, 0%)" fill-opacity="1">
<use xlink:href="#glyph-6-0" x="88.062052" y="88.098697"/>
</g>
<g fill="rgb(0%, 0%, 0%)" fill-opacity="1">
<use xlink:href="#glyph-7-0" x="112.559565" y="73.383016"/>
</g>
<g fill="rgb(0%, 0%, 0%)" fill-opacity="1">
<use xlink:href="#glyph-1-2" x="127.411204" y="88.098697"/>
</g>
<g fill="rgb(0%, 0%, 0%)" fill-opacity="1">
<use xlink:href="#glyph-3-1" x="141.27178" y="88.098697"/>
</g>
<g fill="rgb(0%, 0%, 0%)" fill-opacity="1">
<use xlink:href="#glyph-1-3" x="160.034006" y="88.098697"/>
</g>
<g fill="rgb(0%, 0%, 0%)" fill-opacity="1">
<use xlink:href="#glyph-1-1" x="181.18981" y="78.69254"/>
</g>
<g fill="rgb(0%, 0%, 0%)" fill-opacity="1">
<use xlink:href="#glyph-6-0" x="173.891004" y="88.098697"/>
</g>
<g fill="rgb(0%, 0%, 0%)" fill-opacity="1">
<use xlink:href="#glyph-1-2" x="198.392094" y="88.098697"/>
</g>
<g fill="rgb(0%, 0%, 0%)" fill-opacity="1">
<use xlink:href="#glyph-3-1" x="212.256248" y="88.098697"/>
</g>
<g fill="rgb(0%, 0%, 0%)" fill-opacity="1">
<use xlink:href="#glyph-1-3" x="231.014895" y="88.098697"/>
</g>
<g fill="rgb(0%, 0%, 0%)" fill-opacity="1">
<use xlink:href="#glyph-1-1" x="249.544561" y="78.69254"/>
</g>
<g fill="rgb(0%, 0%, 0%)" fill-opacity="1">
<use xlink:href="#glyph-6-1" x="244.868316" y="88.098697"/>
</g>
<g fill="rgb(0%, 0%, 0%)" fill-opacity="1">
<use xlink:href="#glyph-1-2" x="266.10641" y="88.098697"/>
</g>
<g fill="rgb(0%, 0%, 0%)" fill-opacity="1">
<use xlink:href="#glyph-3-1" x="279.966986" y="88.098697"/>
</g>
<g fill="rgb(0%, 0%, 0%)" fill-opacity="1">
<use xlink:href="#glyph-1-3" x="298.725634" y="88.098697"/>
</g>
<g fill="rgb(0%, 0%, 0%)" fill-opacity="1">
<use xlink:href="#glyph-1-1" x="319.881438" y="78.69254"/>
</g>
<g fill="rgb(0%, 0%, 0%)" fill-opacity="1">
<use xlink:href="#glyph-6-0" x="312.582632" y="88.098697"/>
</g>
<g fill="rgb(0%, 0%, 0%)" fill-opacity="1">
<use xlink:href="#glyph-7-0" x="337.080145" y="73.383016"/>
</g>
<g fill="rgb(0%, 0%, 0%)" fill-opacity="1">
<use xlink:href="#glyph-1-2" x="351.935362" y="88.098697"/>
</g>
<g fill="rgb(0%, 0%, 0%)" fill-opacity="1">
<use xlink:href="#glyph-3-2" x="365.795938" y="88.098697"/>
</g>
<g fill="rgb(0%, 0%, 0%)" fill-opacity="1">
<use xlink:href="#glyph-1-3" x="392.279155" y="88.098697"/>
</g>
<g fill="rgb(0%, 0%, 0%)" fill-opacity="1">
<use xlink:href="#glyph-1-1" x="413.434959" y="78.69254"/>
</g>
<g fill="rgb(0%, 0%, 0%)" fill-opacity="1">
<use xlink:href="#glyph-6-0" x="406.136153" y="88.098697"/>
</g>
<g fill="rgb(0%, 0%, 0%)" fill-opacity="1">
<use xlink:href="#glyph-1-2" x="430.637244" y="88.098697"/>
</g>
<g fill="rgb(0%, 0%, 0%)" fill-opacity="1">
<use xlink:href="#glyph-3-2" x="444.501398" y="88.098697"/>
</g>
<g fill="rgb(0%, 0%, 0%)" fill-opacity="1">
<use xlink:href="#glyph-1-3" x="470.981037" y="88.098697"/>
</g>
<g fill="rgb(0%, 0%, 0%)" fill-opacity="1">
<use xlink:href="#glyph-1-1" x="489.51428" y="78.69254"/>
</g>
<g fill="rgb(0%, 0%, 0%)" fill-opacity="1">
<use xlink:href="#glyph-6-1" x="484.834457" y="88.098697"/>
</g>
<g fill="rgb(0%, 0%, 0%)" fill-opacity="1">
<use xlink:href="#glyph-1-2" x="506.072552" y="88.098697"/>
</g>
<g fill="rgb(0%, 0%, 0%)" fill-opacity="1">
<use xlink:href="#glyph-3-2" x="519.933128" y="88.098697"/>
</g>
<g fill="rgb(0%, 0%, 0%)" fill-opacity="1">
<use xlink:href="#glyph-1-3" x="546.412767" y="88.098697"/>
<use xlink:href="#glyph-1-1" x="560.773997" y="88.098697"/>
</g>
<g fill="rgb(0%, 0%, 0%)" fill-opacity="1">
<use xlink:href="#glyph-3-0" x="560.276921" y="88.098697"/>
</g>
<g fill="rgb(0%, 0%, 0%)" fill-opacity="1">
<use xlink:href="#glyph-7-0" x="579.114281" y="73.383016"/>
</g>
<g fill="rgb(0%, 0%, 0%)" fill-opacity="1">
<use xlink:href="#glyph-4-0" x="579.114281" y="96.910932"/>
</g>
<g fill="rgb(0%, 0%, 0%)" fill-opacity="1">
<use xlink:href="#glyph-2-0" x="598.821058" y="88.098697"/>
</g>
<g fill="rgb(0%, 0%, 0%)" fill-opacity="1">
<use xlink:href="#glyph-1-0" x="608.724536" y="88.098697"/>
</g>
<g fill="rgb(0%, 0%, 0%)" fill-opacity="1">
<use xlink:href="#glyph-0-1" x="626.545788" y="88.098697"/>
</g>
</svg>
