<?xml version="1.0" encoding="UTF-8"?>
<svg xmlns="http://www.w3.org/2000/svg" xmlns:xlink="http://www.w3.org/1999/xlink" width="173pt" height="26.14pt" viewBox="0 0 173 26.14"><!--latexit:AAAIb3jarVRbbBRVGP4PzFAol5223K+DXaRIrdvLbrtFsC2lUIEtsL0s7cJ6dvZ0
d+jszDIzWyjLJueBkBA0BsXLgzcKJmIIolFijIkvXlCI0YKXB2PCg7fEJzTEhBf/
md0CglQfmEnmnO8////9/3fm/Cee0VTL9vmukEmTBXFKSWnEO8xMSzX0nV5qKikV
UbfXNjIRrxHfwxTbKgdy+LWY5AmFN7MRlmgtOn09dVq3aRg2J29Jy6fPWPHgyqpV
D62ufrjmEf+aR1vaH9+8fUf/wG7KBvekM3a2x6tnNe3yzFkeaaG3LxSuGWIjVj+O
xSS9XkWjlnW6rLxi9py58+Yv4JP4ZC5wkU/hJXwqn8ZLTy9avGTpMnn5A5V8Op/B
Z3EPL+ML+SK+hC/lciROLaapOutRDM0wu9NGgvXYqq2xSMZkNB3X2K40TerqoKpQ
G+V2J6jNUFacKkNJ08jqifVOYL9lZE2FdbP9dmXLnI+mXD/eYV/21Xrq6ht6QuEd
G9uiobDrGM5QhXVJi2plX019faCuzu/z1ePcH2xqrPMHGxsCIBE+cyzQ2BTsL6jT
aZpFClNm9RV5RpuaI6Fwl7sNEox51q57bCfui2Wbqp7k0jYkaG1zt39r1qYoI+yu
nGxd78QVwOUNno6NmzpvYqyx1cZZPGszi5fzBbzCKCPtEIUEGKBAFtLAQAcb5xpQ
sPAdgDiumejB8LsWasHnvhn0qoZh9DJhH6i4bkMKdkEOY2y06mihyGLgjEEeSjFL
FtcYRlLkH8JvEtFA0aojdrJbLoeCcZqbNw8yrMAYA/1MnDt1ye56FufMtd6LO+dy
OipGcIwXudJodWq1/jNu3PP/xjlabBiEJleDipoyrsVRpxRZHKy6lcu3qXJ2LOPu
sIz7puLIMMKJHP8jshtjudqdPafu+q+up2N1sFL0zcJvE6qLu3YL7SZWYGDF1gR/
KIc1pBCn3Gom8hv3GUQFyQk9LfRIo9XR5JweZy3vXANbQttObOWzT3TxOXx+byjc
Yej2lXB3j6e3L7ITcVg9wPA8D3ZoNGkhDmHvVLZUgftIEp/L5/VuNXSqGNgg0V1F
htFoM8LYE9gA7aritDk1R0ZjjjGuxKTy2/oiUWiV0UTzv9orW6oLucaSnpTq3Fi2
ihW0Xpjcd/FS2zW+GCmHNEzbjtfI6FCzc0fo9Q1d0kpfTdBXG/QHgo1+v1wATfXB
xkBDEQTw4w8An+l07d5NnXyZ05+xMnIqqqAEk7p156Ia1ZMak30H87loitoyjeWi
aWqn4oPy3jzaqgv26DA1Mym16sCqfOk9CO4Oj1bfEXonVe4+kk+E7k48rkumu3PR
BE0mmZm/xZ7JYyH3KfcdqHqirAd9UdPNir99eF9Mqrh5Hd86ZyeHY80wFcpgIXhh
FdRBI3TCFtgOYTz6eTgET8IL8Aq8AW/CGTgL5+AdeBfOw/vwAXwMn8IF+AIuwZfw
FYzBFfgWvoer8Av8DtfgBplGZhGZrCYNZA1pJSGiEZ1kSJZwcoQcI8fJy+RVcoqc
JefI2+Q8uUAukW/ID+Qnco38Sa6Tv4RDwlHhKeFp4ZjwrPCc8JLwunBGeE/4UPhE
+Ez4XLgojAnfCT8KV4WfhT+E68INURIrxCqxVgyI68SNYqcYEnvEiBgTj4hHxWfE
4+Lz4oslLSUbSgYKPTKJFEbYD/94SmJ/A+PIb4c=-->
<defs>
<g>
<g id="glyph-0-0">
<path d="M 4.421875 -9.609375 C 4.5 -9.765625 4.5 -9.78125 4.5 -9.859375 C 4.5 -10 4.375 -10.125 4.21875 -10.125 C 4.109375 -10.125 4.015625 -10.0625 3.921875 -9.8125 L 1.546875 -3.625 C 1.53125 -3.53125 1.484375 -3.453125 1.484375 -3.375 C 1.484375 -3.328125 1.484375 -3.3125 1.546875 -3.140625 L 3.921875 3.046875 C 3.96875 3.203125 4.03125 3.375 4.21875 3.375 C 4.375 3.375 4.5 3.25 4.5 3.109375 C 4.5 3.0625 4.5 3.03125 4.421875 2.890625 L 2.03125 -3.375 Z M 4.421875 -9.609375 "/>
</g>
<g id="glyph-0-1">
<path d="M 3.6875 -3.140625 C 3.75 -3.3125 3.75 -3.328125 3.75 -3.375 C 3.75 -3.421875 3.75 -3.4375 3.6875 -3.609375 L 1.328125 -9.8125 C 1.234375 -10.046875 1.15625 -10.125 1.015625 -10.125 C 0.859375 -10.125 0.75 -10 0.75 -9.859375 C 0.75 -9.8125 0.75 -9.78125 0.8125 -9.640625 L 3.203125 -3.375 L 0.8125 2.859375 C 0.75 3.015625 0.75 3.03125 0.75 3.109375 C 0.75 3.25 0.859375 3.375 1.015625 3.375 C 1.1875 3.375 1.234375 3.234375 1.296875 3.109375 Z M 3.6875 -3.140625 "/>
</g>
<g id="glyph-1-0">
<path d="M 6.203125 -4.3125 C 6.203125 -5.40625 6.140625 -6.484375 5.671875 -7.484375 C 5.046875 -8.78125 3.9375 -8.984375 3.375 -8.984375 C 2.5625 -8.984375 1.578125 -8.640625 1.03125 -7.390625 C 0.59375 -6.453125 0.53125 -5.40625 0.53125 -4.3125 C 0.53125 -3.3125 0.578125 -2.09375 1.140625 -1.0625 C 1.71875 0.03125 2.703125 0.296875 3.359375 0.296875 C 4.09375 0.296875 5.109375 0.015625 5.703125 -1.265625 C 6.140625 -2.203125 6.203125 -3.25 6.203125 -4.3125 Z M 3.359375 0 C 2.828125 0 2.03125 -0.34375 1.796875 -1.640625 C 1.640625 -2.4375 1.640625 -3.6875 1.640625 -4.484375 C 1.640625 -5.34375 1.640625 -6.234375 1.75 -6.96875 C 2.015625 -8.578125 3.03125 -8.6875 3.359375 -8.6875 C 3.8125 -8.6875 4.703125 -8.453125 4.953125 -7.109375 C 5.09375 -6.359375 5.09375 -5.328125 5.09375 -4.484375 C 5.09375 -3.46875 5.09375 -2.546875 4.9375 -1.6875 C 4.734375 -0.40625 3.96875 0 3.359375 0 Z M 3.359375 0 "/>
</g>
<g id="glyph-1-1">
<path d="M 3.375 -9.375 L 1.5625 -7.53125 L 1.8125 -7.296875 L 3.375 -8.671875 L 4.921875 -7.296875 L 5.171875 -7.53125 Z M 3.375 -9.375 "/>
</g>
<g id="glyph-1-2">
<path d="M 4.46875 3.234375 C 4.46875 3.203125 4.46875 3.171875 4.234375 2.9375 C 2.546875 1.234375 2.125 -1.3125 2.125 -3.375 C 2.125 -5.71875 2.625 -8.078125 4.296875 -9.765625 C 4.46875 -9.921875 4.46875 -9.953125 4.46875 -9.984375 C 4.46875 -10.078125 4.421875 -10.125 4.328125 -10.125 C 4.203125 -10.125 2.984375 -9.203125 2.1875 -7.5 C 1.5 -6 1.34375 -4.515625 1.34375 -3.375 C 1.34375 -2.328125 1.484375 -0.6875 2.234375 0.84375 C 3.03125 2.5 4.203125 3.375 4.328125 3.375 C 4.421875 3.375 4.46875 3.328125 4.46875 3.234375 Z M 4.46875 3.234375 "/>
</g>
<g id="glyph-1-3">
<path d="M 3.90625 -3.375 C 3.90625 -4.421875 3.75 -6.0625 3.015625 -7.59375 C 2.203125 -9.25 1.046875 -10.125 0.90625 -10.125 C 0.828125 -10.125 0.765625 -10.078125 0.765625 -9.984375 C 0.765625 -9.953125 0.765625 -9.921875 1.03125 -9.671875 C 2.34375 -8.34375 3.125 -6.203125 3.125 -3.375 C 3.125 -1.0625 2.625 1.3125 0.9375 3.015625 C 0.765625 3.171875 0.765625 3.203125 0.765625 3.234375 C 0.765625 3.328125 0.828125 3.375 0.90625 3.375 C 1.046875 3.375 2.25 2.453125 3.046875 0.75 C 3.734375 -0.75 3.90625 -2.234375 3.90625 -3.375 Z M 3.90625 -3.375 "/>
</g>
<g id="glyph-2-0">
<path d="M 2.140625 -9.640625 C 2.140625 -9.875 2.140625 -10.125 1.875 -10.125 C 1.609375 -10.125 1.609375 -9.875 1.609375 -9.640625 L 1.609375 2.890625 C 1.609375 3.125 1.609375 3.375 1.875 3.375 C 2.140625 3.375 2.140625 3.125 2.140625 2.890625 Z M 2.140625 -9.640625 "/>
</g>
<g id="glyph-3-0">
<path d="M 5.03125 -5.109375 C 4.796875 -5.609375 4.40625 -5.96875 3.796875 -5.96875 C 2.21875 -5.96875 0.546875 -3.984375 0.546875 -2.015625 C 0.546875 -0.75 1.28125 0.15625 2.328125 0.15625 C 2.609375 0.15625 3.28125 0.09375 4.09375 -0.859375 C 4.203125 -0.296875 4.671875 0.15625 5.3125 0.15625 C 5.796875 0.15625 6.109375 -0.15625 6.3125 -0.59375 C 6.546875 -1.078125 6.71875 -1.90625 6.71875 -1.9375 C 6.71875 -2.0625 6.59375 -2.0625 6.5625 -2.0625 C 6.421875 -2.0625 6.40625 -2.015625 6.375 -1.828125 C 6.140625 -0.9375 5.90625 -0.15625 5.34375 -0.15625 C 4.984375 -0.15625 4.9375 -0.5 4.9375 -0.765625 C 4.9375 -1.0625 4.96875 -1.171875 5.109375 -1.765625 C 5.265625 -2.328125 5.296875 -2.46875 5.40625 -2.984375 L 5.90625 -4.875 C 6 -5.25 6 -5.28125 6 -5.328125 C 6 -5.5625 5.828125 -5.703125 5.609375 -5.703125 C 5.28125 -5.703125 5.078125 -5.40625 5.03125 -5.109375 Z M 4.15625 -1.609375 C 4.09375 -1.359375 4.09375 -1.34375 3.890625 -1.109375 C 3.296875 -0.359375 2.734375 -0.15625 2.359375 -0.15625 C 1.6875 -0.15625 1.5 -0.890625 1.5 -1.421875 C 1.5 -2.09375 1.9375 -3.75 2.234375 -4.375 C 2.65625 -5.171875 3.265625 -5.671875 3.8125 -5.671875 C 4.6875 -5.671875 4.875 -4.5625 4.875 -4.484375 C 4.875 -4.40625 4.84375 -4.3125 4.828125 -4.25 Z M 4.15625 -1.609375 "/>
</g>
<g id="glyph-3-1">
<path d="M 1.796875 -1.125 C 2.53125 -1.90625 2.921875 -2.234375 3.40625 -2.65625 C 3.40625 -2.671875 4.234375 -3.390625 4.71875 -3.875 C 6 -5.125 6.296875 -5.78125 6.296875 -5.828125 C 6.296875 -5.96875 6.1875 -5.96875 6.15625 -5.96875 C 6.0625 -5.96875 6.015625 -5.9375 5.953125 -5.8125 C 5.546875 -5.171875 5.265625 -4.953125 4.9375 -4.953125 C 4.609375 -4.953125 4.453125 -5.15625 4.25 -5.390625 C 4 -5.703125 3.765625 -5.96875 3.328125 -5.96875 C 2.3125 -5.96875 1.6875 -4.71875 1.6875 -4.421875 C 1.6875 -4.359375 1.734375 -4.28125 1.84375 -4.28125 C 1.96875 -4.28125 2 -4.34375 2.03125 -4.421875 C 2.28125 -5.046875 3.0625 -5.0625 3.171875 -5.0625 C 3.453125 -5.0625 3.71875 -4.96875 4.015625 -4.859375 C 4.5625 -4.65625 4.71875 -4.65625 5.0625 -4.65625 C 4.578125 -4.078125 3.4375 -3.109375 3.1875 -2.890625 L 1.96875 -1.75 C 1.046875 -0.84375 0.578125 -0.078125 0.578125 0.015625 C 0.578125 0.15625 0.71875 0.15625 0.75 0.15625 C 0.84375 0.15625 0.875 0.125 0.953125 -0.03125 C 1.265625 -0.5 1.671875 -0.859375 2.109375 -0.859375 C 2.421875 -0.859375 2.546875 -0.75 2.890625 -0.34375 C 3.125 -0.0625 3.359375 0.15625 3.75 0.15625 C 5.09375 0.15625 5.875 -1.5625 5.875 -1.9375 C 5.875 -2 5.8125 -2.0625 5.703125 -2.0625 C 5.59375 -2.0625 5.5625 -1.984375 5.515625 -1.890625 C 5.21875 -1.015625 4.34375 -0.75 3.90625 -0.75 C 3.625 -0.75 3.390625 -0.84375 3.109375 -0.9375 C 2.640625 -1.109375 2.4375 -1.15625 2.15625 -1.15625 C 2.140625 -1.15625 1.921875 -1.15625 1.796875 -1.125 Z M 1.796875 -1.125 "/>
</g>
<g id="glyph-4-0">
<path d="M 5.640625 -4.25 L 5.109375 -4.25 L 4.671875 -3.53125 C 4.21875 -4.015625 3.671875 -4.25 3.03125 -4.25 C 1.421875 -4.25 0.4375 -3.328125 0.4375 -2.09375 C 0.4375 -0.9375 1.296875 0.0625 2.953125 0.0625 C 3.53125 0.0625 4.03125 -0.125 4.4375 -0.421875 L 4.4375 1.296875 L 3.796875 1.296875 L 3.796875 1.828125 C 3.8125 1.828125 4.578125 1.796875 5.03125 1.796875 C 5.5 1.796875 6.265625 1.828125 6.265625 1.828125 L 6.265625 1.296875 L 5.640625 1.296875 Z M 4.5 -1.265625 C 4.171875 -0.703125 3.65625 -0.375 3.0625 -0.375 C 2.359375 -0.375 1.765625 -0.9375 1.765625 -2.09375 C 1.765625 -3.28125 2.46875 -3.765625 3.1875 -3.765625 C 3.984375 -3.765625 4.5 -3.046875 4.5 -2.546875 Z M 4.5 -1.265625 "/>
</g>
<g id="glyph-4-1">
<path d="M 2.984375 1.296875 L 2.359375 1.296875 L 2.359375 -0.34375 C 2.59375 -0.1875 3.046875 0.0625 3.71875 0.0625 C 5.34375 0.0625 6.328125 -0.859375 6.328125 -2.109375 C 6.328125 -3.25 5.515625 -4.25 3.90625 -4.25 C 3.40625 -4.25 2.828125 -4.15625 2.28125 -3.8125 L 2.28125 -4.25 L 0.515625 -4.171875 L 0.515625 -3.65625 C 0.6875 -3.65625 0.875 -3.65625 1 -3.625 C 1.15625 -3.609375 1.15625 -3.5 1.15625 -3.3125 L 1.15625 1.296875 L 0.515625 1.296875 L 0.515625 1.828125 C 0.53125 1.828125 1.296875 1.796875 1.75 1.796875 C 2.21875 1.796875 2.984375 1.828125 2.984375 1.828125 Z M 2.359375 -3.03125 C 2.359375 -3.203125 2.359375 -3.21875 2.5 -3.34375 C 2.953125 -3.734375 3.5 -3.765625 3.703125 -3.765625 C 4.515625 -3.765625 5.015625 -3.125 5.015625 -2.109375 C 5.015625 -0.875 4.3125 -0.375 3.59375 -0.375 C 2.875 -0.375 2.46875 -0.890625 2.359375 -1.046875 Z M 2.359375 -3.03125 "/>
</g>
<g id="glyph-5-0">
<path d="M 2.296875 2.296875 C 2.234375 2.46875 2.234375 2.5 2.234375 2.5625 C 2.234375 2.859375 2.484375 2.9375 2.625 2.9375 C 2.6875 2.9375 2.984375 2.90625 3.125 2.59375 C 3.15625 2.484375 3.21875 2.03125 3.59375 0.125 C 3.71875 0.140625 3.8125 0.15625 4.03125 0.15625 C 6.28125 0.15625 8.359375 -1.96875 8.359375 -4.109375 C 8.359375 -5.15625 7.828125 -5.96875 6.8125 -5.96875 C 4.859375 -5.96875 4.046875 -3.34375 3.234375 -0.71875 C 1.78125 -0.984375 1.03125 -1.734375 1.03125 -2.71875 C 1.03125 -3.09375 1.34375 -4.578125 2.140625 -5.515625 C 2.25 -5.625 2.25 -5.65625 2.25 -5.6875 C 2.25 -5.734375 2.234375 -5.8125 2.09375 -5.8125 C 1.71875 -5.8125 0.671875 -3.859375 0.671875 -2.5625 C 0.671875 -1.296875 1.5625 -0.3125 3.015625 0.03125 Z M 4.15625 -0.640625 C 4.046875 -0.640625 4.015625 -0.640625 3.921875 -0.640625 C 3.75 -0.640625 3.734375 -0.65625 3.734375 -0.703125 C 3.734375 -0.734375 3.96875 -1.953125 4.015625 -2.15625 C 4.421875 -3.890625 5.484375 -5.1875 6.6875 -5.1875 C 7.609375 -5.1875 7.984375 -4.453125 7.984375 -3.8125 C 7.984375 -2.28125 6.234375 -0.640625 4.15625 -0.640625 Z M 4.15625 -0.640625 "/>
</g>
<g id="glyph-6-0">
<path d="M 2.59375 -3.953125 C 2.734375 -3.9375 2.828125 -3.921875 3.109375 -3.84375 C 3.40625 -3.765625 3.640625 -3.703125 3.8125 -3.703125 C 4.1875 -3.703125 4.21875 -3.984375 4.21875 -4.078125 C 4.21875 -4.15625 4.1875 -4.4375 3.8125 -4.4375 C 3.640625 -4.4375 3.40625 -4.390625 3.109375 -4.296875 C 2.828125 -4.21875 2.734375 -4.21875 2.59375 -4.203125 C 2.609375 -4.53125 2.671875 -4.921875 2.71875 -5.21875 C 2.765625 -5.40625 2.84375 -5.890625 2.84375 -6.21875 C 2.84375 -6.5 2.71875 -6.65625 2.484375 -6.65625 C 2.28125 -6.65625 2.109375 -6.546875 2.109375 -6.21875 C 2.109375 -5.90625 2.1875 -5.4375 2.234375 -5.109375 C 2.265625 -5.015625 2.34375 -4.546875 2.359375 -4.203125 C 2.21875 -4.21875 2.125 -4.21875 1.84375 -4.296875 C 1.546875 -4.390625 1.3125 -4.4375 1.140625 -4.4375 C 0.765625 -4.4375 0.734375 -4.15625 0.734375 -4.078125 C 0.734375 -4 0.765625 -3.703125 1.140625 -3.703125 C 1.3125 -3.703125 1.546875 -3.765625 1.84375 -3.84375 C 2.125 -3.921875 2.21875 -3.9375 2.359375 -3.953125 C 2.34375 -3.71875 2.28125 -3.40625 2.234375 -3.21875 C 2.109375 -2.625 2.109375 -2.5625 2.109375 -2.0625 C 2.109375 -0.25 2.28125 1.6875 2.3125 1.875 C 2.328125 1.96875 2.34375 2.015625 2.484375 2.015625 C 2.625 2.015625 2.625 1.96875 2.640625 1.828125 C 2.640625 1.828125 2.71875 1 2.765625 0.421875 C 2.8125 -0.40625 2.84375 -1.234375 2.84375 -2.0625 C 2.84375 -2.5625 2.84375 -2.625 2.71875 -3.234375 C 2.6875 -3.34375 2.609375 -3.71875 2.59375 -3.953125 Z M 2.59375 -3.953125 "/>
</g>
</g>
<clipPath id="clip-0">
<path clip-rule="nonzero" d="M 24 0.0664062 L 26 0.0664062 L 26 8 L 24 8 Z M 24 0.0664062 "/>
</clipPath>
<clipPath id="clip-1">
<path clip-rule="nonzero" d="M 47 0.0664062 L 49 0.0664062 L 49 8 L 47 8 Z M 47 0.0664062 "/>
</clipPath>
<clipPath id="clip-2">
<path clip-rule="nonzero" d="M 73 0.0664062 L 74 0.0664062 L 74 7 L 73 7 Z M 73 0.0664062 "/>
</clipPath>
<clipPath id="clip-3">
<path clip-rule="nonzero" d="M 73 0.0664062 L 101 0.0664062 L 101 2 L 73 2 Z M 73 0.0664062 "/>
</clipPath>
<clipPath id="clip-4">
<path clip-rule="nonzero" d="M 100 0.0664062 L 101 0.0664062 L 101 7 L 100 7 Z M 100 0.0664062 "/>
</clipPath>
<clipPath id="clip-5">
<path clip-rule="nonzero" d="M 125 0.0664062 L 127 0.0664062 L 127 7 L 125 7 Z M 125 0.0664062 "/>
</clipPath>
<clipPath id="clip-6">
<path clip-rule="nonzero" d="M 126 0.0664062 L 150 0.0664062 L 150 2 L 126 2 Z M 126 0.0664062 "/>
</clipPath>
<clipPath id="clip-7">
<path clip-rule="nonzero" d="M 149 0.0664062 L 150 0.0664062 L 150 7 L 149 7 Z M 149 0.0664062 "/>
</clipPath>
<clipPath id="clip-8">
<path clip-rule="nonzero" d="M 148 18 L 155 18 L 155 24.753906 L 148 24.753906 Z M 148 18 "/>
</clipPath>
</defs>
<g clip-path="url(#clip-0)">
<path fill="none" stroke-width="0.498" stroke-linecap="butt" stroke-linejoin="miter" stroke="rgb(0%, 0%, 0%)" stroke-opacity="1" stroke-miterlimit="10" d="M -0.000972606 0.0000661479 L -0.000972606 4.288445 " transform="matrix(1.355407, 0, 0, -1.355407, 24.931006, 6.933683)"/>
</g>
<path fill="none" stroke-width="0.498" stroke-linecap="butt" stroke-linejoin="miter" stroke="rgb(0%, 0%, 0%)" stroke-opacity="1" stroke-miterlimit="10" d="M 0.000759202 -0.000405174 L 16.592288 -0.000405174 " transform="matrix(1.355407, 0, 0, -1.355407, 25.268502, 1.456482)"/>
<g clip-path="url(#clip-1)">
<path fill="none" stroke-width="0.498" stroke-linecap="butt" stroke-linejoin="miter" stroke="rgb(0%, 0%, 0%)" stroke-opacity="1" stroke-miterlimit="10" d="M -0.000862007 0.0000661479 L -0.000862007 4.288445 " transform="matrix(1.355407, 0, 0, -1.355407, 48.094918, 6.933683)"/>
</g>
<g clip-path="url(#clip-2)">
<path fill="none" stroke-width="0.498" stroke-linecap="butt" stroke-linejoin="miter" stroke="rgb(0%, 0%, 0%)" stroke-opacity="1" stroke-miterlimit="10" d="M -0.0003927 -0.000594689 L -0.0003927 4.287784 " transform="matrix(1.355407, 0, 0, -1.355407, 73.629439, 6.182788)"/>
</g>
<g clip-path="url(#clip-3)">
<path fill="none" stroke-width="0.498" stroke-linecap="butt" stroke-linejoin="miter" stroke="rgb(0%, 0%, 0%)" stroke-opacity="1" stroke-miterlimit="10" d="M 0.00133911 -0.0000660113 L 19.336508 -0.0000660113 " transform="matrix(1.355407, 0, 0, -1.355407, 73.966935, 0.706942)"/>
</g>
<g clip-path="url(#clip-4)">
<path fill="none" stroke-width="0.498" stroke-linecap="butt" stroke-linejoin="miter" stroke="rgb(0%, 0%, 0%)" stroke-opacity="1" stroke-miterlimit="10" d="M 0.00123989 -0.000594689 L 0.00123989 4.287784 " transform="matrix(1.355407, 0, 0, -1.355407, 100.513944, 6.182788)"/>
</g>
<g clip-path="url(#clip-5)">
<path fill="none" stroke-width="0.498" stroke-linecap="butt" stroke-linejoin="miter" stroke="rgb(0%, 0%, 0%)" stroke-opacity="1" stroke-miterlimit="10" d="M 0.000709196 -0.000594689 L 0.000709196 4.287784 " transform="matrix(1.355407, 0, 0, -1.355407, 126.04982, 6.182788)"/>
</g>
<g clip-path="url(#clip-6)">
<path fill="none" stroke-width="0.498" stroke-linecap="butt" stroke-linejoin="miter" stroke="rgb(0%, 0%, 0%)" stroke-opacity="1" stroke-miterlimit="10" d="M -0.00044097 -0.0000660113 L 16.715013 -0.0000660113 " transform="matrix(1.355407, 0, 0, -1.355407, 126.387316, 0.706942)"/>
</g>
<g clip-path="url(#clip-7)">
<path fill="none" stroke-width="0.498" stroke-linecap="butt" stroke-linejoin="miter" stroke="rgb(0%, 0%, 0%)" stroke-opacity="1" stroke-miterlimit="10" d="M -0.00113726 -0.000594689 L -0.00113726 4.287784 " transform="matrix(1.355407, 0, 0, -1.355407, 149.380448, 6.182788)"/>
</g>
<g fill="rgb(0%, 0%, 0%)" fill-opacity="1">
<use xlink:href="#glyph-0-0" x="1.706293" y="19.217547"/>
</g>
<g fill="rgb(0%, 0%, 0%)" fill-opacity="1">
<use xlink:href="#glyph-1-0" x="6.957142" y="19.217547"/>
</g>
<g fill="rgb(0%, 0%, 0%)" fill-opacity="1">
<use xlink:href="#glyph-2-0" x="13.709781" y="19.217547"/>
</g>
<g fill="rgb(0%, 0%, 0%)" fill-opacity="1">
<use xlink:href="#glyph-1-1" x="17.649951" y="19.217547"/>
</g>
<g fill="rgb(0%, 0%, 0%)" fill-opacity="1">
<use xlink:href="#glyph-3-0" x="17.460194" y="19.217547"/>
</g>
<g fill="rgb(0%, 0%, 0%)" fill-opacity="1">
<use xlink:href="#glyph-4-0" x="24.597769" y="21.242526"/>
</g>
<g fill="rgb(0%, 0%, 0%)" fill-opacity="1">
<use xlink:href="#glyph-1-1" x="36.143129" y="19.217547"/>
</g>
<g fill="rgb(0%, 0%, 0%)" fill-opacity="1">
<use xlink:href="#glyph-5-0" x="33.98261" y="19.217547"/>
</g>
<g fill="rgb(0%, 0%, 0%)" fill-opacity="1">
<use xlink:href="#glyph-1-2" x="42.817156" y="19.217547"/>
</g>
<g fill="rgb(0%, 0%, 0%)" fill-opacity="1">
<use xlink:href="#glyph-3-1" x="48.068004" y="19.217547"/>
</g>
<g fill="rgb(0%, 0%, 0%)" fill-opacity="1">
<use xlink:href="#glyph-1-3" x="54.94263" y="19.217547"/>
<use xlink:href="#glyph-1-1" x="62.354637" y="19.217547"/>
</g>
<g fill="rgb(0%, 0%, 0%)" fill-opacity="1">
<use xlink:href="#glyph-5-0" x="60.179924" y="19.217547"/>
</g>
<g fill="rgb(0%, 0%, 0%)" fill-opacity="1">
<use xlink:href="#glyph-1-2" x="69.01447" y="19.217547"/>
</g>
<g fill="rgb(0%, 0%, 0%)" fill-opacity="1">
<use xlink:href="#glyph-3-1" x="74.265318" y="19.217547"/>
</g>
<g fill="rgb(0%, 0%, 0%)" fill-opacity="1">
<use xlink:href="#glyph-1-3" x="81.139945" y="19.217547"/>
<use xlink:href="#glyph-1-1" x="88.565454" y="19.217547"/>
</g>
<g fill="rgb(0%, 0%, 0%)" fill-opacity="1">
<use xlink:href="#glyph-5-0" x="86.392148" y="19.217547"/>
</g>
<g fill="rgb(0%, 0%, 0%)" fill-opacity="1">
<use xlink:href="#glyph-1-2" x="95.225338" y="19.217547"/>
</g>
<g fill="rgb(0%, 0%, 0%)" fill-opacity="1">
<use xlink:href="#glyph-3-1" x="100.477542" y="19.217547"/>
</g>
<g fill="rgb(0%, 0%, 0%)" fill-opacity="1">
<use xlink:href="#glyph-1-3" x="107.352168" y="19.217547"/>
<use xlink:href="#glyph-1-1" x="114.777678" y="19.217547"/>
</g>
<g fill="rgb(0%, 0%, 0%)" fill-opacity="1">
<use xlink:href="#glyph-5-0" x="112.603017" y="19.217547"/>
</g>
<g fill="rgb(0%, 0%, 0%)" fill-opacity="1">
<use xlink:href="#glyph-1-2" x="121.437562" y="19.217547"/>
</g>
<g fill="rgb(0%, 0%, 0%)" fill-opacity="1">
<use xlink:href="#glyph-3-1" x="126.688411" y="19.217547"/>
</g>
<g fill="rgb(0%, 0%, 0%)" fill-opacity="1">
<use xlink:href="#glyph-1-3" x="133.563037" y="19.217547"/>
<use xlink:href="#glyph-1-1" x="141.258614" y="19.217547"/>
</g>
<g fill="rgb(0%, 0%, 0%)" fill-opacity="1">
<use xlink:href="#glyph-3-0" x="141.069283" y="19.217547"/>
</g>
<g fill="rgb(0%, 0%, 0%)" fill-opacity="1">
<use xlink:href="#glyph-6-0" x="148.205503" y="13.642756"/>
</g>
<g clip-path="url(#clip-8)">
<g fill="rgb(0%, 0%, 0%)" fill-opacity="1">
<use xlink:href="#glyph-4-1" x="148.205503" y="22.555916"/>
</g>
</g>
<g fill="rgb(0%, 0%, 0%)" fill-opacity="1">
<use xlink:href="#glyph-2-0" x="155.669732" y="19.217547"/>
</g>
<g fill="rgb(0%, 0%, 0%)" fill-opacity="1">
<use xlink:href="#glyph-1-0" x="159.421499" y="19.217547"/>
</g>
<g fill="rgb(0%, 0%, 0%)" fill-opacity="1">
<use xlink:href="#glyph-0-1" x="166.172784" y="19.217547"/>
</g>
</svg>
