<?xml version="1.0" encoding="UTF-8"?>
<svg xmlns="http://www.w3.org/2000/svg" xmlns:xlink="http://www.w3.org/1999/xlink" width="173pt" height="37.14pt" viewBox="0 0 173 37.14"><!--latexit:AAAIkHjanVRrbBRVFD6XzlAoj922vJ+LXaRIrdtud9stgi2UQqVsge1jabesd2fv
7g6dnVlmZgtl2eT+ICYEjUHx8cMXRRMxBNEIMcbEP6KoxGjBxw9jwg9fib/QEBP+
eGZ2CzXoCs4kc+/5zjnfecw9N5ZRZMP0eK6SaWWCOL28IuweZboha+oeN9WllIxS
r9vUMmG3FtvHJNOoAvL4q1GnIxjazsZYvL1o9NWMmb26ppmcvOVcNWv26vvX1K59
YF3dg/UP+dY/3Nbx6PZduweH9lKW2JfOmNk+t5pVlCtz5jqcS9wDwVD9CBszBnEt
Bul3Swo1jNOVVdXz5i9YuGgxn8bLuMBFPp2X8xl8Jq84vXTZ8hUrXavuq+Gz+Gw+
lzt4JV/Cl/LlfAV3hWPUYIqssj5JUzS9N63FWZ8pmwoLZ3RG0zGFDadpUpUTskRN
LLc3Tk2GZcWoNJLUtawa32w5DhpaVpdYLzto1rTN/3D6jROd5hVPg6PR29QXDO3e
uikSDNmGoQyVWI9zaYPLU+/1+hsbfR6PF/e+QEtzoy/Q3OQHJ+FzJvzNLYHBQnUq
TbNwYcuMgSLPeEtrOBjqsdvghAnHho2P7MG+GKYuq0nu3IkE7Zvs9u/ImhTLCNma
U+2bLb+CcGWLo3Prtq5bMubYbuIuljWZwav4Yl6tVZIOiEAcNJAgC2lgoIKJewUo
GPgOQQx1Olow/G6ABvDYbwat6mAUrXQ4ADLqTUjBMOTQx0RURYQii4Y7BnmowChZ
1DH0pMg/gt8kSkNFVEXZim7YHBL6KXbcPLhgNfpoaKfj3srLZeuzuGc2+m/cOZvT
qmIM11iRK42olavxn36TlnfrZ9ViQgJa7BpkrCljI1Z1UpHFkmU7c9eUqqyOZewO
u7BvMq4MPSzPyT/isn0Mu3ar59TW/2JbWqglS0XbLPxasrqYjRuI65iBhhkbJf5Q
DnNIoZyysyllN2mTwAqSJS0NtEgjatVknR5Ll7euge7gzpM7+LyTPXw+X9QfDHVq
qnk11Nvn6B8I70E5JB9ieJ4TnQpNGigHcXZq2mrBfpxOvoAv7N+hqVTScEAiw0WG
8UgritHHcAA6ZMkac6qPjUctMCZFnVVT5iJeGJXxeOs/4jVtdYVYE0lHSrZuLFPG
DNovlQ2c794S5cuQckTBsB14jYyPtFp3hOpt6nGu8dQHPA0Bnz/Q7PO5CkKLN9Ds
byoKfvz4/MDnWFO7f1sXX2nNZ7SSXIxIWIJO7byHvOzgcC6iUDWpMJfncD4XSVHT
RaO5SJqaqVjCtT+PWJ2FRkapnknJtYfW3oNUN8m4NxeJ02SS6fnb3Jl8vmJqNlMS
uTONSarb5PncHci90JXK+65C/W/20h0r1a/DnohuR8VzMXog6qy+dV/fPoinRqOt
MAMqYQm4YS00QjN0QTfsghDORh6OwBPwPLwMb8CbcAbOwjl4B96FC/AevA8fwcdw
CT6Dy/AFfAkTcBW+ge/gGvwMv8F1uElmkrnERdaRJrKetJMgUYhKMiRLODlKjpMT
5CXyCnmNnCXnyNvkArlELpOvyffkR3Kd/EFukD+FI8Ix4UnhKeG48IzwrPCi8Lpw
RjgvfCBcFD4RPhU+FyaEb4UfhGvCT8Lvwg3hpugUq8VasUH0ixvFrWKXGBT7xLAY
FY+Kx8SnxRPic+IL5bQ8UX64METTSGGFg/C3p5z/BW+6e2I=-->
<defs>
<g>
<g id="glyph-0-0">
<path d="M 4.46875 -9.703125 C 4.53125 -9.84375 4.53125 -9.875 4.53125 -9.953125 C 4.53125 -10.09375 4.421875 -10.21875 4.265625 -10.21875 C 4.140625 -10.21875 4.046875 -10.15625 3.953125 -9.90625 L 1.5625 -3.65625 C 1.546875 -3.5625 1.5 -3.484375 1.5 -3.40625 C 1.5 -3.359375 1.5 -3.34375 1.5625 -3.171875 L 3.953125 3.078125 C 4 3.234375 4.078125 3.40625 4.265625 3.40625 C 4.421875 3.40625 4.53125 3.28125 4.53125 3.140625 C 4.53125 3.09375 4.53125 3.0625 4.46875 2.921875 L 2.0625 -3.40625 Z M 4.46875 -9.703125 "/>
</g>
<g id="glyph-0-1">
<path d="M 3.71875 -3.171875 C 3.78125 -3.34375 3.78125 -3.359375 3.78125 -3.40625 C 3.78125 -3.453125 3.78125 -3.46875 3.71875 -3.640625 L 1.328125 -9.90625 C 1.25 -10.140625 1.171875 -10.21875 1.015625 -10.21875 C 0.875 -10.21875 0.75 -10.09375 0.75 -9.953125 C 0.75 -9.90625 0.75 -9.875 0.8125 -9.734375 L 3.234375 -3.40625 L 0.8125 2.890625 C 0.75 3.03125 0.75 3.0625 0.75 3.140625 C 0.75 3.28125 0.875 3.40625 1.015625 3.40625 C 1.203125 3.40625 1.25 3.265625 1.3125 3.140625 Z M 3.71875 -3.171875 "/>
</g>
<g id="glyph-1-0">
<path d="M 6.265625 -4.359375 C 6.265625 -5.453125 6.203125 -6.546875 5.71875 -7.546875 C 5.09375 -8.859375 3.984375 -9.078125 3.40625 -9.078125 C 2.59375 -9.078125 1.59375 -8.71875 1.03125 -7.453125 C 0.59375 -6.515625 0.53125 -5.453125 0.53125 -4.359375 C 0.53125 -3.34375 0.578125 -2.109375 1.140625 -1.078125 C 1.734375 0.03125 2.71875 0.296875 3.390625 0.296875 C 4.125 0.296875 5.15625 0.015625 5.765625 -1.28125 C 6.203125 -2.21875 6.265625 -3.28125 6.265625 -4.359375 Z M 3.390625 0 C 2.859375 0 2.0625 -0.34375 1.8125 -1.65625 C 1.65625 -2.46875 1.65625 -3.71875 1.65625 -4.53125 C 1.65625 -5.390625 1.65625 -6.296875 1.765625 -7.03125 C 2.03125 -8.65625 3.046875 -8.78125 3.390625 -8.78125 C 3.84375 -8.78125 4.734375 -8.53125 5 -7.1875 C 5.140625 -6.421875 5.140625 -5.375 5.140625 -4.53125 C 5.140625 -3.5 5.140625 -2.578125 4.984375 -1.703125 C 4.78125 -0.40625 4 0 3.390625 0 Z M 3.390625 0 "/>
</g>
<g id="glyph-1-1">
<path d="M 3.40625 -9.453125 L 1.578125 -7.609375 L 1.828125 -7.359375 L 3.40625 -8.75 L 4.96875 -7.359375 L 5.21875 -7.609375 Z M 3.40625 -9.453125 "/>
</g>
<g id="glyph-1-2">
<path d="M 4.515625 3.265625 C 4.515625 3.234375 4.515625 3.203125 4.28125 2.96875 C 2.578125 1.25 2.140625 -1.328125 2.140625 -3.40625 C 2.140625 -5.78125 2.65625 -8.140625 4.328125 -9.84375 C 4.515625 -10.015625 4.515625 -10.046875 4.515625 -10.078125 C 4.515625 -10.171875 4.453125 -10.21875 4.375 -10.21875 C 4.234375 -10.21875 3.015625 -9.296875 2.203125 -7.5625 C 1.515625 -6.0625 1.34375 -4.546875 1.34375 -3.40625 C 1.34375 -2.34375 1.5 -0.6875 2.25 0.84375 C 3.0625 2.515625 4.234375 3.40625 4.375 3.40625 C 4.453125 3.40625 4.515625 3.359375 4.515625 3.265625 Z M 4.515625 3.265625 "/>
</g>
<g id="glyph-1-3">
<path d="M 3.9375 -3.40625 C 3.9375 -4.46875 3.78125 -6.125 3.03125 -7.65625 C 2.21875 -9.328125 1.046875 -10.21875 0.90625 -10.21875 C 0.828125 -10.21875 0.78125 -10.171875 0.78125 -10.078125 C 0.78125 -10.046875 0.78125 -10.015625 1.03125 -9.765625 C 2.375 -8.421875 3.140625 -6.25 3.140625 -3.40625 C 3.140625 -1.078125 2.640625 1.328125 0.953125 3.03125 C 0.78125 3.203125 0.78125 3.234375 0.78125 3.265625 C 0.78125 3.359375 0.828125 3.40625 0.90625 3.40625 C 1.046875 3.40625 2.28125 2.484375 3.078125 0.75 C 3.78125 -0.75 3.9375 -2.265625 3.9375 -3.40625 Z M 3.9375 -3.40625 "/>
</g>
<g id="glyph-2-0">
<path d="M 2.171875 -9.734375 C 2.171875 -9.96875 2.171875 -10.21875 1.890625 -10.21875 C 1.625 -10.21875 1.625 -9.96875 1.625 -9.734375 L 1.625 2.921875 C 1.625 3.15625 1.625 3.40625 1.890625 3.40625 C 2.171875 3.40625 2.171875 3.15625 2.171875 2.921875 Z M 2.171875 -9.734375 "/>
</g>
<g id="glyph-3-0">
<path d="M 5.078125 -5.15625 C 4.84375 -5.65625 4.4375 -6.015625 3.828125 -6.015625 C 2.234375 -6.015625 0.546875 -4.015625 0.546875 -2.03125 C 0.546875 -0.75 1.296875 0.15625 2.359375 0.15625 C 2.625 0.15625 3.3125 0.09375 4.125 -0.875 C 4.234375 -0.296875 4.71875 0.15625 5.375 0.15625 C 5.84375 0.15625 6.15625 -0.15625 6.375 -0.59375 C 6.609375 -1.09375 6.78125 -1.921875 6.78125 -1.953125 C 6.78125 -2.078125 6.65625 -2.078125 6.625 -2.078125 C 6.484375 -2.078125 6.46875 -2.03125 6.4375 -1.84375 C 6.203125 -0.953125 5.953125 -0.15625 5.390625 -0.15625 C 5.03125 -0.15625 4.984375 -0.5 4.984375 -0.78125 C 4.984375 -1.078125 5.015625 -1.1875 5.15625 -1.78125 C 5.3125 -2.359375 5.34375 -2.5 5.46875 -3.015625 L 5.953125 -4.921875 C 6.046875 -5.296875 6.046875 -5.328125 6.046875 -5.375 C 6.046875 -5.609375 5.890625 -5.75 5.65625 -5.75 C 5.328125 -5.75 5.125 -5.453125 5.078125 -5.15625 Z M 4.203125 -1.625 C 4.125 -1.375 4.125 -1.34375 3.921875 -1.125 C 3.328125 -0.375 2.765625 -0.15625 2.390625 -0.15625 C 1.703125 -0.15625 1.515625 -0.90625 1.515625 -1.4375 C 1.515625 -2.109375 1.953125 -3.78125 2.265625 -4.421875 C 2.6875 -5.21875 3.296875 -5.71875 3.84375 -5.71875 C 4.734375 -5.71875 4.921875 -4.609375 4.921875 -4.53125 C 4.921875 -4.4375 4.890625 -4.359375 4.875 -4.296875 Z M 4.203125 -1.625 "/>
</g>
<g id="glyph-3-1">
<path d="M 1.8125 -1.125 C 2.546875 -1.921875 2.9375 -2.265625 3.4375 -2.6875 C 3.4375 -2.703125 4.28125 -3.421875 4.765625 -3.90625 C 6.0625 -5.171875 6.359375 -5.828125 6.359375 -5.890625 C 6.359375 -6.015625 6.234375 -6.015625 6.21875 -6.015625 C 6.125 -6.015625 6.078125 -6 6.015625 -5.875 C 5.59375 -5.21875 5.3125 -5 4.984375 -5 C 4.65625 -5 4.5 -5.203125 4.296875 -5.4375 C 4.03125 -5.75 3.796875 -6.015625 3.359375 -6.015625 C 2.328125 -6.015625 1.703125 -4.75 1.703125 -4.46875 C 1.703125 -4.40625 1.75 -4.3125 1.859375 -4.3125 C 1.984375 -4.3125 2.015625 -4.390625 2.046875 -4.46875 C 2.296875 -5.09375 3.09375 -5.109375 3.203125 -5.109375 C 3.484375 -5.109375 3.75 -5.015625 4.0625 -4.90625 C 4.609375 -4.703125 4.75 -4.703125 5.109375 -4.703125 C 4.625 -4.109375 3.46875 -3.140625 3.21875 -2.921875 L 1.984375 -1.765625 C 1.0625 -0.859375 0.578125 -0.078125 0.578125 0.015625 C 0.578125 0.15625 0.71875 0.15625 0.75 0.15625 C 0.859375 0.15625 0.890625 0.125 0.96875 -0.03125 C 1.28125 -0.5 1.6875 -0.875 2.125 -0.875 C 2.4375 -0.875 2.578125 -0.75 2.921875 -0.359375 C 3.140625 -0.0625 3.390625 0.15625 3.78125 0.15625 C 5.140625 0.15625 5.921875 -1.578125 5.921875 -1.953125 C 5.921875 -2.015625 5.875 -2.078125 5.765625 -2.078125 C 5.640625 -2.078125 5.609375 -2 5.578125 -1.90625 C 5.265625 -1.015625 4.390625 -0.765625 3.9375 -0.765625 C 3.671875 -0.765625 3.421875 -0.84375 3.140625 -0.9375 C 2.671875 -1.125 2.46875 -1.171875 2.1875 -1.171875 C 2.15625 -1.171875 1.9375 -1.171875 1.8125 -1.125 Z M 1.8125 -1.125 "/>
</g>
<g id="glyph-4-0">
<path d="M 5.6875 -4.296875 L 5.15625 -4.296875 L 4.71875 -3.5625 C 4.265625 -4.0625 3.71875 -4.296875 3.0625 -4.296875 C 1.4375 -4.296875 0.453125 -3.359375 0.453125 -2.109375 C 0.453125 -0.953125 1.3125 0.0625 2.984375 0.0625 C 3.578125 0.0625 4.078125 -0.140625 4.484375 -0.421875 L 4.484375 1.3125 L 3.84375 1.3125 L 3.84375 1.859375 C 3.84375 1.859375 4.625 1.8125 5.078125 1.8125 C 5.546875 1.8125 6.3125 1.859375 6.328125 1.859375 L 6.328125 1.3125 L 5.6875 1.3125 Z M 4.546875 -1.28125 C 4.21875 -0.703125 3.6875 -0.375 3.09375 -0.375 C 2.375 -0.375 1.78125 -0.953125 1.78125 -2.109375 C 1.78125 -3.3125 2.484375 -3.8125 3.21875 -3.8125 C 4.015625 -3.8125 4.546875 -3.078125 4.546875 -2.5625 Z M 4.546875 -1.28125 "/>
</g>
<g id="glyph-4-1">
<path d="M 3.015625 1.3125 L 2.375 1.3125 L 2.375 -0.359375 C 2.609375 -0.1875 3.078125 0.0625 3.75 0.0625 C 5.390625 0.0625 6.390625 -0.875 6.390625 -2.125 C 6.390625 -3.28125 5.5625 -4.296875 3.9375 -4.296875 C 3.453125 -4.296875 2.859375 -4.203125 2.3125 -3.859375 L 2.3125 -4.296875 L 0.53125 -4.21875 L 0.53125 -3.6875 C 0.6875 -3.6875 0.875 -3.6875 1 -3.671875 C 1.171875 -3.640625 1.171875 -3.53125 1.171875 -3.34375 L 1.171875 1.3125 L 0.53125 1.3125 L 0.53125 1.859375 C 0.53125 1.859375 1.3125 1.8125 1.765625 1.8125 C 2.234375 1.8125 3 1.859375 3.015625 1.859375 Z M 2.375 -3.0625 C 2.375 -3.234375 2.390625 -3.25 2.515625 -3.375 C 2.984375 -3.765625 3.546875 -3.8125 3.75 -3.8125 C 4.546875 -3.8125 5.0625 -3.15625 5.0625 -2.125 C 5.0625 -0.890625 4.359375 -0.375 3.625 -0.375 C 2.90625 -0.375 2.484375 -0.890625 2.375 -1.0625 Z M 2.375 -3.0625 "/>
</g>
<g id="glyph-5-0">
<path d="M 2.3125 2.3125 C 2.265625 2.5 2.25 2.515625 2.25 2.59375 C 2.25 2.890625 2.5 2.96875 2.640625 2.96875 C 2.71875 2.96875 3.015625 2.921875 3.140625 2.609375 C 3.1875 2.5 3.25 2.0625 3.625 0.125 C 3.75 0.140625 3.84375 0.15625 4.078125 0.15625 C 6.328125 0.15625 8.4375 -1.984375 8.4375 -4.140625 C 8.4375 -5.203125 7.90625 -6.015625 6.875 -6.015625 C 4.90625 -6.015625 4.09375 -3.375 3.265625 -0.71875 C 1.796875 -1 1.03125 -1.75 1.03125 -2.734375 C 1.03125 -3.125 1.34375 -4.625 2.171875 -5.5625 C 2.28125 -5.6875 2.28125 -5.703125 2.28125 -5.734375 C 2.28125 -5.796875 2.25 -5.875 2.109375 -5.875 C 1.734375 -5.875 0.6875 -3.890625 0.6875 -2.59375 C 0.6875 -1.3125 1.578125 -0.3125 3.03125 0.03125 Z M 4.203125 -0.640625 C 4.09375 -0.640625 4.0625 -0.640625 3.953125 -0.65625 C 3.78125 -0.65625 3.78125 -0.671875 3.78125 -0.703125 C 3.78125 -0.734375 4 -1.96875 4.046875 -2.1875 C 4.46875 -3.921875 5.53125 -5.234375 6.75 -5.234375 C 7.6875 -5.234375 8.046875 -4.5 8.046875 -3.84375 C 8.046875 -2.296875 6.296875 -0.640625 4.203125 -0.640625 Z M 4.203125 -0.640625 "/>
</g>
<g id="glyph-6-0">
<path d="M 2.609375 -3.984375 C 2.765625 -3.96875 2.859375 -3.96875 3.140625 -3.890625 C 3.453125 -3.796875 3.671875 -3.75 3.859375 -3.75 C 4.234375 -3.75 4.265625 -4.03125 4.265625 -4.109375 C 4.265625 -4.1875 4.234375 -4.484375 3.859375 -4.484375 C 3.671875 -4.484375 3.453125 -4.4375 3.140625 -4.34375 C 2.859375 -4.265625 2.765625 -4.265625 2.609375 -4.234375 C 2.640625 -4.578125 2.703125 -4.96875 2.75 -5.265625 C 2.78125 -5.453125 2.875 -5.953125 2.875 -6.28125 C 2.875 -6.5625 2.734375 -6.71875 2.5 -6.71875 C 2.296875 -6.71875 2.125 -6.609375 2.125 -6.28125 C 2.125 -5.96875 2.203125 -5.484375 2.265625 -5.171875 C 2.28125 -5.0625 2.375 -4.59375 2.390625 -4.234375 C 2.25 -4.265625 2.140625 -4.265625 1.859375 -4.34375 C 1.5625 -4.4375 1.328125 -4.484375 1.140625 -4.484375 C 0.765625 -4.484375 0.734375 -4.203125 0.734375 -4.109375 C 0.734375 -4.03125 0.765625 -3.75 1.140625 -3.75 C 1.328125 -3.75 1.5625 -3.796875 1.859375 -3.890625 C 2.140625 -3.96875 2.25 -3.96875 2.390625 -3.984375 C 2.375 -3.75 2.296875 -3.453125 2.25 -3.25 C 2.125 -2.65625 2.125 -2.59375 2.125 -2.09375 C 2.125 -0.25 2.3125 1.703125 2.34375 1.90625 C 2.34375 1.984375 2.375 2.046875 2.5 2.046875 C 2.640625 2.046875 2.65625 1.984375 2.671875 1.859375 C 2.671875 1.84375 2.75 1.015625 2.78125 0.421875 C 2.828125 -0.40625 2.875 -1.25 2.875 -2.09375 C 2.875 -2.59375 2.875 -2.65625 2.734375 -3.265625 C 2.71875 -3.375 2.640625 -3.75 2.609375 -3.984375 Z M 2.609375 -3.984375 "/>
</g>
</g>
<clipPath id="clip-0">
<path clip-rule="nonzero" d="M 24 0.0703125 L 25 0.0703125 L 25 19 L 24 19 Z M 24 0.0703125 "/>
</clipPath>
<clipPath id="clip-1">
<path clip-rule="nonzero" d="M 24 0.0703125 L 150 0.0703125 L 150 2 L 24 2 Z M 24 0.0703125 "/>
</clipPath>
<clipPath id="clip-2">
<path clip-rule="nonzero" d="M 149 0.0703125 L 151 0.0703125 L 151 19 L 149 19 Z M 149 0.0703125 "/>
</clipPath>
<clipPath id="clip-3">
<path clip-rule="nonzero" d="M 149 29 L 156 29 L 156 35.9375 L 149 35.9375 Z M 149 29 "/>
</clipPath>
</defs>
<g clip-path="url(#clip-0)">
<path fill="none" stroke-width="0.498" stroke-linecap="butt" stroke-linejoin="miter" stroke="rgb(0%, 0%, 0%)" stroke-opacity="1" stroke-miterlimit="10" d="M -0.000654973 0.000680379 L -0.000654973 12.867205 " transform="matrix(1.368316, 0, 0, -1.368316, 24.344646, 17.946243)"/>
</g>
<g clip-path="url(#clip-1)">
<path fill="none" stroke-width="0.498" stroke-linecap="butt" stroke-linejoin="miter" stroke="rgb(0%, 0%, 0%)" stroke-opacity="1" stroke-miterlimit="10" d="M -0.00128851 -0.00116149 L 91.317635 -0.00116149 " transform="matrix(1.368316, 0, 0, -1.368316, 24.685357, 0.678098)"/>
</g>
<g clip-path="url(#clip-2)">
<path fill="none" stroke-width="0.498" stroke-linecap="butt" stroke-linejoin="miter" stroke="rgb(0%, 0%, 0%)" stroke-opacity="1" stroke-miterlimit="10" d="M 0.000856306 0.000680379 L 0.000856306 12.867205 " transform="matrix(1.368316, 0, 0, -1.368316, 149.979297, 17.946243)"/>
</g>
<path fill="none" stroke-width="0.498" stroke-linecap="butt" stroke-linejoin="miter" stroke="rgb(0%, 0%, 0%)" stroke-opacity="1" stroke-miterlimit="10" d="M -0.000633472 0.000509039 L -0.000633472 4.288399 " transform="matrix(1.368316, 0, 0, -1.368316, 47.047742, 17.188197)"/>
<path fill="none" stroke-width="0.498" stroke-linecap="butt" stroke-linejoin="miter" stroke="rgb(0%, 0%, 0%)" stroke-opacity="1" stroke-miterlimit="10" d="M -0.00126701 0.0000325121 L 19.337059 0.0000325121 " transform="matrix(1.368316, 0, 0, -1.368316, 47.388452, 11.660201)"/>
<path fill="none" stroke-width="0.498" stroke-linecap="butt" stroke-linejoin="miter" stroke="rgb(0%, 0%, 0%)" stroke-opacity="1" stroke-miterlimit="10" d="M -0.000574044 0.000509039 L -0.000574044 4.288399 " transform="matrix(1.368316, 0, 0, -1.368316, 74.188285, 17.188197)"/>
<path fill="none" stroke-width="0.498" stroke-linecap="butt" stroke-linejoin="miter" stroke="rgb(0%, 0%, 0%)" stroke-opacity="1" stroke-miterlimit="10" d="M -0.000835247 0.000509039 L -0.000835247 4.288399 " transform="matrix(1.368316, 0, 0, -1.368316, 99.965987, 17.188197)"/>
<path fill="none" stroke-width="0.498" stroke-linecap="butt" stroke-linejoin="miter" stroke="rgb(0%, 0%, 0%)" stroke-opacity="1" stroke-miterlimit="10" d="M 0.001386 0.0000325121 L 19.336858 0.0000325121 " transform="matrix(1.368316, 0, 0, -1.368316, 100.306697, 11.660201)"/>
<path fill="none" stroke-width="0.498" stroke-linecap="butt" stroke-linejoin="miter" stroke="rgb(0%, 0%, 0%)" stroke-opacity="1" stroke-miterlimit="10" d="M 0.00107897 0.000509039 L 0.00107897 4.288399 " transform="matrix(1.368316, 0, 0, -1.368316, 127.107899, 17.188197)"/>
<g fill="rgb(0%, 0%, 0%)" fill-opacity="1">
<use xlink:href="#glyph-0-0" x="0.898751" y="30.347094"/>
</g>
<g fill="rgb(0%, 0%, 0%)" fill-opacity="1">
<use xlink:href="#glyph-1-0" x="6.199606" y="30.347094"/>
</g>
<g fill="rgb(0%, 0%, 0%)" fill-opacity="1">
<use xlink:href="#glyph-2-0" x="13.016555" y="30.347094"/>
</g>
<g fill="rgb(0%, 0%, 0%)" fill-opacity="1">
<use xlink:href="#glyph-1-1" x="16.994249" y="30.347094"/>
</g>
<g fill="rgb(0%, 0%, 0%)" fill-opacity="1">
<use xlink:href="#glyph-3-0" x="16.802685" y="30.347094"/>
</g>
<g fill="rgb(0%, 0%, 0%)" fill-opacity="1">
<use xlink:href="#glyph-4-0" x="24.008236" y="32.391358"/>
</g>
<g fill="rgb(0%, 0%, 0%)" fill-opacity="1">
<use xlink:href="#glyph-1-1" x="35.66355" y="30.347094"/>
</g>
<g fill="rgb(0%, 0%, 0%)" fill-opacity="1">
<use xlink:href="#glyph-5-0" x="33.482455" y="30.347094"/>
</g>
<g fill="rgb(0%, 0%, 0%)" fill-opacity="1">
<use xlink:href="#glyph-1-2" x="42.401137" y="30.347094"/>
</g>
<g fill="rgb(0%, 0%, 0%)" fill-opacity="1">
<use xlink:href="#glyph-3-1" x="47.701992" y="30.347094"/>
</g>
<g fill="rgb(0%, 0%, 0%)" fill-opacity="1">
<use xlink:href="#glyph-1-3" x="54.64209" y="30.347094"/>
<use xlink:href="#glyph-1-1" x="62.124685" y="30.347094"/>
</g>
<g fill="rgb(0%, 0%, 0%)" fill-opacity="1">
<use xlink:href="#glyph-5-0" x="59.929262" y="30.347094"/>
</g>
<g fill="rgb(0%, 0%, 0%)" fill-opacity="1">
<use xlink:href="#glyph-1-2" x="68.847944" y="30.347094"/>
</g>
<g fill="rgb(0%, 0%, 0%)" fill-opacity="1">
<use xlink:href="#glyph-3-1" x="74.1488" y="30.347094"/>
</g>
<g fill="rgb(0%, 0%, 0%)" fill-opacity="1">
<use xlink:href="#glyph-1-3" x="81.088897" y="30.347094"/>
<use xlink:href="#glyph-1-1" x="88.585125" y="30.347094"/>
</g>
<g fill="rgb(0%, 0%, 0%)" fill-opacity="1">
<use xlink:href="#glyph-5-0" x="86.391121" y="30.347094"/>
</g>
<g fill="rgb(0%, 0%, 0%)" fill-opacity="1">
<use xlink:href="#glyph-1-2" x="95.308435" y="30.347094"/>
</g>
<g fill="rgb(0%, 0%, 0%)" fill-opacity="1">
<use xlink:href="#glyph-3-1" x="100.610659" y="30.347094"/>
</g>
<g fill="rgb(0%, 0%, 0%)" fill-opacity="1">
<use xlink:href="#glyph-1-3" x="107.550757" y="30.347094"/>
<use xlink:href="#glyph-1-1" x="115.046984" y="30.347094"/>
</g>
<g fill="rgb(0%, 0%, 0%)" fill-opacity="1">
<use xlink:href="#glyph-5-0" x="112.851612" y="30.347094"/>
</g>
<g fill="rgb(0%, 0%, 0%)" fill-opacity="1">
<use xlink:href="#glyph-1-2" x="121.770294" y="30.347094"/>
</g>
<g fill="rgb(0%, 0%, 0%)" fill-opacity="1">
<use xlink:href="#glyph-3-1" x="127.07115" y="30.347094"/>
</g>
<g fill="rgb(0%, 0%, 0%)" fill-opacity="1">
<use xlink:href="#glyph-1-3" x="134.011247" y="30.347094"/>
<use xlink:href="#glyph-1-1" x="141.780114" y="30.347094"/>
</g>
<g fill="rgb(0%, 0%, 0%)" fill-opacity="1">
<use xlink:href="#glyph-3-0" x="141.58898" y="30.347094"/>
</g>
<g fill="rgb(0%, 0%, 0%)" fill-opacity="1">
<use xlink:href="#glyph-6-0" x="148.793163" y="24.719211"/>
</g>
<g clip-path="url(#clip-3)">
<g fill="rgb(0%, 0%, 0%)" fill-opacity="1">
<use xlink:href="#glyph-4-1" x="148.793163" y="33.717256"/>
</g>
</g>
<g fill="rgb(0%, 0%, 0%)" fill-opacity="1">
<use xlink:href="#glyph-2-0" x="156.328478" y="30.347094"/>
</g>
<g fill="rgb(0%, 0%, 0%)" fill-opacity="1">
<use xlink:href="#glyph-1-0" x="160.115976" y="30.347094"/>
</g>
<g fill="rgb(0%, 0%, 0%)" fill-opacity="1">
<use xlink:href="#glyph-0-1" x="166.931557" y="30.347094"/>
</g>
</svg>
