<?xml version="1.0" encoding="UTF-8"?>
<svg xmlns="http://www.w3.org/2000/svg" xmlns:xlink="http://www.w3.org/1999/xlink" width="724pt" height="134.36pt" viewBox="0 0 724 134.36"><!--latexit:AAAKpXjavVVbbBRlFD4/zABbLrttuV8Hu9hWsG4vu+0WwRYqUIEtsG1Z2i3r7Ozf
3aGzM+vMbEtdNvkfiAlBY1BQH7xRMBGCiEaJMSa+eEElRgteYowJD4omPqESE148
M7ttF2wrRONOMnMu37l8579sNKXIhunxXCZTpnL8tOlFIXc/1Q1ZU/e4RV1KyKi1
u00tFXJr0X1UMo0SII+9HHE5A8GtdJDGmvOgL2c42nVNMxl53bVy5qxVd5dXVN6z
es29Vfd5197f1PLQ1p27urr3irR3XzJlpjvcalpRLs2e43Qtdu8OBKv66KDRhd98
kU63pIiGcaq4pHTuvPkLFi5iU9hUxjGeTWPT2QzmYEWnlixdtnyFsPKuMjaTzWJz
mJMVs8VsCVvGljMhFBUNqsgq7ZA0RdPbk1qMdpiyqdBQSqdiMqrQnqQYV+VeWRJN
pNseE02KtKKi1BfXtbQa22gFdhlaWpdoO91vljWt/uPkYVqWuuSpdtbU1nUEgrs2
bwgHgjYwmBIl2uZaUi14qmprfTU1Xo+nFmWvv6G+xuuvr/OBi7DZw776Bn9Xjp0q
JmkoJ1Jjdz7PUENjKBBss8fggmHnuvUP7MG5GKYuq3Hm2oEJmjfY49+eNkWkEbQ9
J5o3WnE55dKDzk2bt7SO6thjs4lSNG1Sg5WwRaxUKyYtEIYYaCBBGpJAQQUTZQVE
MPDphij6dERQfK+DavDYTwpRa6AfUToMgIx+ExLQAxmMMdGqokXELBpKFLJQhFXS
6KMYKWL+PnzHUevOW1XUreqGnUPCOMWumwUBVmGMhjgdZasvwfanUaa2daLcGTun
xWIQv9F8riRarV6Nf4wbQd5unMXFhF5osDnIyCllWyx2Uj6Lpct250IBK2tiKXvC
As5Nxi/FCCtyZEUEO8awuVszF23/zzbSslq6lMem4ZdJ2UVtu4F2HTvQsGNjkhXK
YA8J1BN2N5PhRjC9yCA+KdJARBKtFidr91i+rHUNbAvsOL6dzT3exuaxhZ2B4CZN
NS8H2zucnbtDe1APyo9S3M+9mxQxbqAewLNT1lQB9s/lYvPZgs7tmipKGh6QcE8+
w1C4EdXIw3gAWmTJOuaiPjgUsYxRKeIqKTgXsdxRGYo1jmsva9qQqzUcdyZk68Yy
Zeyg+cK0196/ejrElmLKPgXLtuA1MtTXaN0Ram1dm6vcU+X3VPu9Pn+91yvklIZa
f72vLq/48OX1AZttndpHtrSyFdb5jBRP/S4sIQVdtPvurqP7ezJhRVTjChU8B7KZ
cEI0BTGSCSdFMxHtFVLl2b8b+8qzlimcMuS9mXBMjMepnq0YrBwxjooJS8zF3wIe
qMwWFXZS0MTttpDNjJt58JbM3d6bOY6T/nb5jdUrUBJyAfObGI6CB8bGkRMFcQxY
UHaU53jeVPYWXjX/Ga+JWE2wcgW8CuB3tqL/bkuNv6EyEzaWmXToRf93p3e+MSbb
Fgc8Yd3uHy+L/oGIq3T0T3zsdjrRH2mEGVAMi8ENlVAD9dAK22AnBPHCzMJBeBye
hRfhVTgNZ+AsnIM34S04D+/Au/ABfAQX4FO4CJ/DFzAMl+Fr+BauwFX4Fa7BDeIg
c4hAVpM6spY0kwBRiEpSJE0YOUSOkKPkBfISOUnOknPkDXKeXCAXyVfke/IjuUZ+
J9fJn9xB7jD3BPckd4R7mjvGPc+9wp3h3ube4z7kPuY+4T7jhrlvuB+4K9xP3G/c
de4G7+JL+Qq+mvfx6/nNfCsf4Dv4EB/hD/GH+af4o/wz/HOOfkfGcSR3s04huS/s
h5t+jmN/AUJfR7E=-->
<defs>
<g>
<g id="glyph-0-0">
<path d="M 11.703125 -25.421875 C 11.890625 -25.8125 11.890625 -25.890625 11.890625 -26.0625 C 11.890625 -26.453125 11.5625 -26.78125 11.171875 -26.78125 C 10.859375 -26.78125 10.609375 -26.59375 10.359375 -25.953125 L 4.109375 -9.5625 C 4.03125 -9.359375 3.921875 -9.140625 3.921875 -8.921875 C 3.921875 -8.8125 3.921875 -8.75 4.109375 -8.3125 L 10.359375 8.0625 C 10.5 8.46875 10.671875 8.921875 11.171875 8.921875 C 11.5625 8.921875 11.890625 8.609375 11.890625 8.21875 C 11.890625 8.109375 11.890625 8.03125 11.703125 7.640625 L 5.390625 -8.921875 Z M 11.703125 -25.421875 "/>
</g>
<g id="glyph-0-1">
<path d="M 9.75 -8.3125 C 9.921875 -8.75 9.921875 -8.8125 9.921875 -8.921875 C 9.921875 -9.03125 9.921875 -9.109375 9.75 -9.53125 L 3.5 -25.953125 C 3.28125 -26.5625 3.078125 -26.78125 2.671875 -26.78125 C 2.28125 -26.78125 1.96875 -26.453125 1.96875 -26.0625 C 1.96875 -25.953125 1.96875 -25.890625 2.140625 -25.484375 L 8.46875 -8.921875 L 2.140625 7.5625 C 1.96875 7.96875 1.96875 8.03125 1.96875 8.21875 C 1.96875 8.609375 2.28125 8.921875 2.671875 8.921875 C 3.140625 8.921875 3.28125 8.5625 3.421875 8.21875 Z M 9.75 -8.3125 "/>
</g>
<g id="glyph-1-0">
<path d="M 16.421875 -11.421875 C 16.421875 -14.28125 16.25 -17.140625 15 -19.78125 C 13.359375 -23.203125 10.421875 -23.78125 8.921875 -23.78125 C 6.78125 -23.78125 4.171875 -22.84375 2.71875 -19.53125 C 1.578125 -17.0625 1.390625 -14.28125 1.390625 -11.421875 C 1.390625 -8.75 1.53125 -5.53125 3 -2.828125 C 4.53125 0.078125 7.140625 0.78125 8.890625 0.78125 C 10.8125 0.78125 13.53125 0.03125 15.109375 -3.359375 C 16.25 -5.8125 16.421875 -8.609375 16.421875 -11.421875 Z M 8.890625 0 C 7.5 0 5.390625 -0.890625 4.75 -4.3125 C 4.359375 -6.46875 4.359375 -9.75 4.359375 -11.859375 C 4.359375 -14.140625 4.359375 -16.5 4.640625 -18.421875 C 5.3125 -22.671875 8 -23 8.890625 -23 C 10.0625 -23 12.421875 -22.34375 13.109375 -18.8125 C 13.453125 -16.8125 13.453125 -14.109375 13.453125 -11.859375 C 13.453125 -9.171875 13.453125 -6.75 13.0625 -4.46875 C 12.53125 -1.078125 10.5 0 8.890625 0 Z M 8.890625 0 "/>
</g>
<g id="glyph-1-1">
<path d="M 8.921875 -24.78125 L 4.140625 -19.921875 L 4.78125 -19.28125 L 8.921875 -22.921875 L 13.03125 -19.28125 L 13.671875 -19.921875 Z M 8.921875 -24.78125 "/>
</g>
<g id="glyph-1-2">
<path d="M 11.8125 8.5625 C 11.8125 8.46875 11.8125 8.390625 11.203125 7.78125 C 6.75 3.28125 5.609375 -3.46875 5.609375 -8.921875 C 5.609375 -15.140625 6.96875 -21.34375 11.359375 -25.8125 C 11.8125 -26.234375 11.8125 -26.3125 11.8125 -26.421875 C 11.8125 -26.671875 11.671875 -26.78125 11.453125 -26.78125 C 11.109375 -26.78125 7.890625 -24.34375 5.78125 -19.8125 C 3.96875 -15.890625 3.53125 -11.921875 3.53125 -8.921875 C 3.53125 -6.140625 3.921875 -1.828125 5.890625 2.21875 C 8.03125 6.609375 11.109375 8.921875 11.453125 8.921875 C 11.671875 8.921875 11.8125 8.8125 11.8125 8.5625 Z M 11.8125 8.5625 "/>
</g>
<g id="glyph-1-3">
<path d="M 10.3125 -8.921875 C 10.3125 -11.703125 9.921875 -16.03125 7.96875 -20.0625 C 5.8125 -24.453125 2.75 -26.78125 2.390625 -26.78125 C 2.171875 -26.78125 2.03125 -26.640625 2.03125 -26.421875 C 2.03125 -26.3125 2.03125 -26.234375 2.71875 -25.59375 C 6.21875 -22.0625 8.25 -16.390625 8.25 -8.921875 C 8.25 -2.828125 6.921875 3.46875 2.5 7.96875 C 2.03125 8.390625 2.03125 8.46875 2.03125 8.5625 C 2.03125 8.78125 2.171875 8.921875 2.390625 8.921875 C 2.75 8.921875 5.96875 6.5 8.0625 1.96875 C 9.890625 -1.96875 10.3125 -5.921875 10.3125 -8.921875 Z M 10.3125 -8.921875 "/>
</g>
<g id="glyph-2-0">
<path d="M 5.671875 -25.484375 C 5.671875 -26.140625 5.671875 -26.78125 4.96875 -26.78125 C 4.25 -26.78125 4.25 -26.140625 4.25 -25.484375 L 4.25 7.640625 C 4.25 8.28125 4.25 8.921875 4.96875 8.921875 C 5.671875 8.921875 5.671875 8.28125 5.671875 7.640625 Z M 5.671875 -25.484375 "/>
</g>
<g id="glyph-3-0">
<path d="M 13.3125 -13.5 C 12.671875 -14.8125 11.640625 -15.78125 10.03125 -15.78125 C 5.859375 -15.78125 1.421875 -10.53125 1.421875 -5.3125 C 1.421875 -1.96875 3.390625 0.390625 6.171875 0.390625 C 6.890625 0.390625 8.671875 0.25 10.8125 -2.28125 C 11.109375 -0.78125 12.359375 0.390625 14.0625 0.390625 C 15.3125 0.390625 16.140625 -0.421875 16.703125 -1.578125 C 17.3125 -2.859375 17.78125 -5.03125 17.78125 -5.109375 C 17.78125 -5.46875 17.453125 -5.46875 17.359375 -5.46875 C 17 -5.46875 16.953125 -5.3125 16.859375 -4.8125 C 16.25 -2.5 15.609375 -0.390625 14.140625 -0.390625 C 13.171875 -0.390625 13.0625 -1.328125 13.0625 -2.03125 C 13.0625 -2.828125 13.140625 -3.109375 13.53125 -4.671875 C 13.921875 -6.171875 14 -6.53125 14.3125 -7.890625 L 15.609375 -12.890625 C 15.859375 -13.890625 15.859375 -13.953125 15.859375 -14.109375 C 15.859375 -14.703125 15.421875 -15.0625 14.8125 -15.0625 C 13.953125 -15.0625 13.421875 -14.28125 13.3125 -13.5 Z M 11 -4.25 C 10.8125 -3.609375 10.8125 -3.53125 10.28125 -2.921875 C 8.71875 -0.96875 7.25 -0.390625 6.25 -0.390625 C 4.46875 -0.390625 3.96875 -2.359375 3.96875 -3.75 C 3.96875 -5.53125 5.109375 -9.921875 5.921875 -11.5625 C 7.03125 -13.671875 8.640625 -15 10.0625 -15 C 12.390625 -15 12.890625 -12.0625 12.890625 -11.859375 C 12.890625 -11.640625 12.8125 -11.421875 12.78125 -11.25 Z M 11 -4.25 "/>
</g>
<g id="glyph-3-1">
<path d="M 17.359375 -13.609375 C 17.5 -14.109375 17.5 -14.171875 17.5 -14.421875 C 17.5 -15.0625 17 -15.390625 16.453125 -15.390625 C 16.109375 -15.390625 15.53125 -15.171875 15.203125 -14.640625 C 15.140625 -14.453125 14.859375 -13.359375 14.703125 -12.703125 C 14.453125 -11.78125 14.203125 -10.8125 14 -9.859375 L 12.390625 -3.421875 C 12.25 -2.890625 10.71875 -0.390625 8.359375 -0.390625 C 6.53125 -0.390625 6.140625 -1.96875 6.140625 -3.28125 C 6.140625 -4.921875 6.75 -7.140625 7.96875 -10.28125 C 8.53125 -11.75 8.671875 -12.140625 8.671875 -12.859375 C 8.671875 -14.453125 7.53125 -15.78125 5.75 -15.78125 C 2.359375 -15.78125 1.03125 -10.609375 1.03125 -10.28125 C 1.03125 -9.921875 1.390625 -9.921875 1.46875 -9.921875 C 1.828125 -9.921875 1.859375 -10 2.03125 -10.5625 C 3 -13.921875 4.421875 -15 5.640625 -15 C 5.921875 -15 6.53125 -15 6.53125 -13.859375 C 6.53125 -12.953125 6.171875 -12.03125 5.921875 -11.359375 C 4.5 -7.5625 3.859375 -5.53125 3.859375 -3.859375 C 3.859375 -0.671875 6.109375 0.390625 8.21875 0.390625 C 9.609375 0.390625 10.8125 -0.21875 11.8125 -1.21875 C 11.359375 0.640625 10.921875 2.390625 9.5 4.28125 C 8.5625 5.5 7.21875 6.53125 5.5625 6.53125 C 5.0625 6.53125 3.46875 6.421875 2.859375 5.03125 C 3.421875 5.03125 3.890625 5.03125 4.390625 4.609375 C 4.75 4.28125 5.109375 3.8125 5.109375 3.140625 C 5.109375 2.03125 4.140625 1.890625 3.78125 1.890625 C 2.96875 1.890625 1.78125 2.46875 1.78125 4.21875 C 1.78125 6 3.359375 7.3125 5.5625 7.3125 C 9.25 7.3125 12.921875 4.0625 13.921875 0.03125 Z M 17.359375 -13.609375 "/>
</g>
<g id="glyph-3-2">
<path d="M 16.5 -12.109375 C 16.671875 -12.890625 17.03125 -14.203125 17.03125 -14.421875 C 17.03125 -15.0625 16.53125 -15.390625 16 -15.390625 C 15.5625 -15.390625 14.921875 -15.109375 14.671875 -14.390625 C 14.5625 -14.140625 12.890625 -7.3125 12.640625 -6.390625 C 12.390625 -5.3125 12.3125 -4.671875 12.3125 -4.03125 C 12.3125 -3.640625 12.3125 -3.578125 12.359375 -3.390625 C 11.53125 -1.5 10.46875 -0.390625 9.0625 -0.390625 C 6.21875 -0.390625 6.21875 -3.03125 6.21875 -3.640625 C 6.21875 -4.78125 6.390625 -6.171875 8.0625 -10.5625 C 8.46875 -11.640625 8.671875 -12.140625 8.671875 -12.859375 C 8.671875 -14.453125 7.5 -15.78125 5.75 -15.78125 C 2.359375 -15.78125 1.03125 -10.609375 1.03125 -10.28125 C 1.03125 -9.921875 1.390625 -9.921875 1.46875 -9.921875 C 1.828125 -9.921875 1.859375 -10 2.03125 -10.5625 C 3 -13.890625 4.390625 -15 5.640625 -15 C 5.96875 -15 6.53125 -14.953125 6.53125 -13.8125 C 6.53125 -12.921875 6.140625 -11.921875 5.890625 -11.3125 C 4.3125 -7.109375 3.890625 -5.46875 3.890625 -4.109375 C 3.890625 -0.859375 6.28125 0.390625 8.96875 0.390625 C 9.5625 0.390625 11.25 0.390625 12.671875 -2.109375 C 13.609375 0.171875 16.0625 0.390625 17.140625 0.390625 C 19.8125 0.390625 21.390625 -1.859375 22.3125 -4 C 23.53125 -6.78125 24.671875 -11.5625 24.671875 -13.28125 C 24.671875 -15.25 23.703125 -15.78125 23.09375 -15.78125 C 22.203125 -15.78125 21.3125 -14.859375 21.3125 -14.0625 C 21.3125 -13.609375 21.53125 -13.390625 21.84375 -13.109375 C 22.25 -12.703125 23.140625 -11.78125 23.140625 -10.0625 C 23.140625 -8.859375 22.09375 -5.359375 21.171875 -3.53125 C 20.25 -1.640625 19 -0.390625 17.25 -0.390625 C 15.5625 -0.390625 14.609375 -1.46875 14.609375 -3.5 C 14.609375 -4.5 14.859375 -5.609375 15 -6.109375 Z M 16.5 -12.109375 "/>
</g>
<g id="glyph-4-0">
<path d="M 7.890625 3.453125 L 6.21875 3.453125 L 6.21875 -0.921875 C 6.84375 -0.5 8.0625 0.15625 9.8125 0.15625 C 14.109375 0.15625 16.734375 -2.28125 16.734375 -5.578125 C 16.734375 -8.59375 14.5625 -11.25 10.3125 -11.25 C 9.015625 -11.25 7.5 -11 6.046875 -10.09375 L 6.046875 -11.25 L 1.375 -11.046875 L 1.375 -9.640625 C 1.796875 -9.640625 2.296875 -9.640625 2.625 -9.59375 C 3.046875 -9.515625 3.046875 -9.25 3.046875 -8.765625 L 3.046875 3.453125 L 1.375 3.453125 L 1.375 4.84375 C 1.40625 4.84375 3.421875 4.75 4.625 4.75 C 5.84375 4.75 7.875 4.84375 7.890625 4.84375 Z M 6.21875 -8 C 6.21875 -8.46875 6.25 -8.5 6.59375 -8.8125 C 7.796875 -9.875 9.265625 -9.96875 9.796875 -9.96875 C 11.921875 -9.96875 13.265625 -8.265625 13.265625 -5.578125 C 13.265625 -2.328125 11.390625 -1 9.5 -1 C 7.59375 -1 6.515625 -2.34375 6.21875 -2.765625 Z M 6.21875 -8 "/>
</g>
<g id="glyph-4-1">
<path d="M 6.046875 -6.046875 L 6.046875 -17.34375 L 1.375 -17.140625 L 1.375 -15.734375 C 2.890625 -15.734375 3.046875 -15.734375 3.046875 -14.71875 L 3.046875 -1.40625 L 1.375 -1.40625 L 1.375 0 C 1.53125 0 3.390625 -0.09375 4.46875 -0.09375 C 5.671875 -0.09375 7.546875 0 7.5625 0 L 7.5625 -1.40625 L 5.890625 -1.40625 L 5.890625 -4.015625 L 7.625 -5.25 L 10.765625 -1.828125 C 10.96875 -1.59375 11 -1.578125 11 -1.546875 C 11 -1.40625 10.671875 -1.40625 10.46875 -1.40625 L 10.46875 0 C 11.546875 -0.046875 12.640625 -0.09375 13.71875 -0.09375 C 14.609375 -0.09375 15.484375 -0.078125 16.390625 0 L 16.390625 -1.40625 C 15.640625 -1.40625 15.109375 -1.40625 14.890625 -1.46875 C 14.71875 -1.5 14.671875 -1.546875 14.359375 -1.84375 L 9.8125 -6.796875 L 13.390625 -9.34375 C 13.734375 -9.59375 13.890625 -9.6875 15.6875 -9.6875 L 15.6875 -11.09375 C 15.015625 -11.046875 14.3125 -11 13.640625 -11 C 12.546875 -11 10.546875 -11.09375 10.421875 -11.09375 L 10.421875 -9.6875 C 10.75 -9.6875 10.8125 -9.625 10.921875 -9.546875 C 10.875 -9.5 10.6875 -9.375 10.625 -9.3125 Z M 6.046875 -6.046875 "/>
</g>
<g id="glyph-5-0">
<path d="M 6.421875 -8.296875 C 6.4375 -8.3125 6.609375 -8.65625 6.609375 -8.921875 C 6.609375 -9.5625 6.03125 -9.96875 5.5 -9.96875 C 4.765625 -9.96875 4.5625 -9.421875 4.484375 -9.15625 L 1.734375 -1.421875 C 1.65625 -1.21875 1.65625 -1.15625 1.65625 -1.140625 C 1.65625 -0.859375 2.40625 -0.671875 2.421875 -0.671875 C 2.59375 -0.671875 2.625 -0.765625 2.734375 -0.984375 Z M 6.421875 -8.296875 "/>
</g>
<g id="glyph-6-0">
<path d="M 17.203125 -23.84375 C 17.25 -24 17.3125 -24.203125 17.3125 -24.390625 C 17.3125 -24.75 17.0625 -24.78125 16.890625 -24.78125 C 16.53125 -24.78125 16.5 -24.703125 16.359375 -24.0625 L 10.421875 -0.46875 C 7.71875 -0.78125 6.359375 -2.109375 6.359375 -4.46875 C 6.359375 -5.171875 6.359375 -6.109375 8.28125 -11.109375 C 8.421875 -11.53125 8.671875 -12.140625 8.671875 -12.859375 C 8.671875 -14.453125 7.53125 -15.78125 5.75 -15.78125 C 2.359375 -15.78125 1.03125 -10.609375 1.03125 -10.28125 C 1.03125 -9.921875 1.390625 -9.921875 1.46875 -9.921875 C 1.828125 -9.921875 1.859375 -10 2.03125 -10.5625 C 3 -13.953125 4.421875 -15 5.640625 -15 C 5.921875 -15 6.53125 -15 6.53125 -13.859375 C 6.53125 -12.921875 6.171875 -12.03125 5.71875 -10.78125 C 4 -6.28125 4 -5.359375 4 -4.75 C 4 -1.359375 6.78125 0.109375 10.21875 0.328125 C 9.921875 1.609375 9.921875 1.671875 9.421875 3.578125 C 9.3125 3.96875 8.609375 6.859375 8.609375 6.96875 C 8.609375 7 8.609375 7.3125 9.03125 7.3125 C 9.109375 7.3125 9.28125 7.3125 9.359375 7.171875 C 9.46875 7.109375 9.671875 6.21875 9.78125 5.71875 L 11.140625 0.390625 C 12.453125 0.390625 15.609375 0.390625 18.953125 -3.421875 C 20.421875 -5.0625 21.171875 -6.640625 21.5625 -7.71875 C 21.890625 -8.609375 22.671875 -11.703125 22.671875 -13.28125 C 22.671875 -15.28125 21.703125 -15.78125 21.09375 -15.78125 C 20.203125 -15.78125 19.3125 -14.859375 19.3125 -14.0625 C 19.3125 -13.609375 19.53125 -13.390625 19.84375 -13.109375 C 20.25 -12.703125 21.140625 -11.78125 21.140625 -10.0625 C 21.140625 -7.78125 19.28125 -4.859375 18.03125 -3.578125 C 14.890625 -0.390625 12.609375 -0.390625 11.3125 -0.390625 Z M 17.203125 -23.84375 "/>
</g>
<g id="glyph-6-1">
<path d="M 15.609375 -23.921875 C 15.609375 -24 15.703125 -24.390625 15.703125 -24.421875 C 15.703125 -24.453125 15.703125 -24.78125 15.28125 -24.78125 C 14.921875 -24.78125 14.890625 -24.671875 14.75 -24.0625 L 12.671875 -15.8125 C 7 -15.640625 1.75 -10.890625 1.75 -6.03125 C 1.75 -2.640625 4.25 0.171875 8.609375 0.421875 C 8.3125 1.53125 8.0625 2.671875 7.78125 3.78125 C 7.359375 5.46875 7 6.8125 7 6.921875 C 7 7.28125 7.25 7.3125 7.421875 7.3125 C 7.609375 7.3125 7.671875 7.28125 7.78125 7.171875 C 7.859375 7.109375 8.0625 6.25 8.171875 5.75 L 9.53125 0.421875 C 15.28125 0.25 20.453125 -4.5625 20.453125 -9.359375 C 20.453125 -12.171875 18.5625 -15.453125 13.609375 -15.8125 Z M 8.78125 -0.359375 C 6.640625 -0.46875 4.0625 -1.71875 4.0625 -5.28125 C 4.0625 -9.5625 7.140625 -14.5625 12.453125 -15.03125 Z M 13.390625 -15.03125 C 16.109375 -14.890625 18.140625 -13.25 18.140625 -10.109375 C 18.140625 -5.890625 15.0625 -0.78125 9.71875 -0.359375 Z M 13.390625 -15.03125 "/>
</g>
<g id="glyph-7-0">
<path d="M 6.84375 -10.4375 C 7.21875 -10.390625 7.46875 -10.375 8.21875 -10.171875 C 9.015625 -9.9375 9.625 -9.796875 10.09375 -9.796875 C 11.0625 -9.796875 11.171875 -10.546875 11.171875 -10.765625 C 11.171875 -10.96875 11.0625 -11.75 10.09375 -11.75 C 9.625 -11.75 9.015625 -11.59375 8.21875 -11.375 C 7.46875 -11.171875 7.21875 -11.140625 6.84375 -11.09375 C 6.890625 -11.96875 7.078125 -13.015625 7.203125 -13.796875 C 7.296875 -14.296875 7.515625 -15.5625 7.515625 -16.4375 C 7.515625 -17.1875 7.171875 -17.59375 6.546875 -17.59375 C 6.015625 -17.59375 5.578125 -17.3125 5.578125 -16.4375 C 5.578125 -15.609375 5.765625 -14.359375 5.921875 -13.515625 C 5.96875 -13.234375 6.203125 -12.015625 6.25 -11.09375 C 5.875 -11.140625 5.625 -11.171875 4.875 -11.375 C 4.078125 -11.59375 3.46875 -11.75 3 -11.75 C 2.03125 -11.75 1.921875 -11 1.921875 -10.765625 C 1.921875 -10.5625 2.03125 -9.796875 3 -9.796875 C 3.46875 -9.796875 4.078125 -9.9375 4.875 -10.171875 C 5.625 -10.375 5.875 -10.390625 6.25 -10.4375 C 6.203125 -9.8125 6.015625 -9.015625 5.890625 -8.5 C 5.578125 -6.953125 5.578125 -6.765625 5.578125 -5.46875 C 5.578125 -0.65625 6.046875 4.46875 6.125 4.96875 C 6.140625 5.203125 6.203125 5.34375 6.546875 5.34375 C 6.921875 5.34375 6.953125 5.203125 7 4.84375 C 7 4.828125 7.203125 2.640625 7.296875 1.125 C 7.421875 -1.078125 7.515625 -3.265625 7.515625 -5.46875 C 7.515625 -6.765625 7.515625 -6.953125 7.171875 -8.546875 C 7.125 -8.8125 6.890625 -9.8125 6.84375 -10.4375 Z M 6.84375 -10.4375 "/>
</g>
</g>
<clipPath id="clip-0">
<path clip-rule="nonzero" d="M 256 0.179688 L 259 0.179688 L 259 79 L 256 79 Z M 256 0.179688 "/>
</clipPath>
<clipPath id="clip-1">
<path clip-rule="nonzero" d="M 257 0.179688 L 668 0.179688 L 668 3 L 257 3 Z M 257 0.179688 "/>
</clipPath>
<clipPath id="clip-2">
<path clip-rule="nonzero" d="M 666 0.179688 L 669 0.179688 L 669 79 L 666 79 Z M 666 0.179688 "/>
</clipPath>
<clipPath id="clip-3">
<path clip-rule="nonzero" d="M 1.714844 92 L 10 92 L 10 129 L 1.714844 129 Z M 1.714844 92 "/>
</clipPath>
<clipPath id="clip-4">
<path clip-rule="nonzero" d="M 666 117 L 682 117 L 682 133.542969 L 666 133.542969 Z M 666 117 "/>
</clipPath>
<clipPath id="clip-5">
<path clip-rule="nonzero" d="M 714 92 L 722.28125 92 L 722.28125 129 L 714 129 Z M 714 92 "/>
</clipPath>
</defs>
<path fill="none" stroke-width="0.498" stroke-linecap="butt" stroke-linejoin="miter" stroke="rgb(0%, 0%, 0%)" stroke-opacity="1" stroke-miterlimit="10" d="M -0.000033535 -0.000314974 L -0.000033535 17.15785 " transform="matrix(3.582933, 0, 0, -3.582933, 64.699339, 87.002778)"/>
<path fill="none" stroke-width="0.498" stroke-linecap="butt" stroke-linejoin="miter" stroke="rgb(0%, 0%, 0%)" stroke-opacity="1" stroke-miterlimit="10" d="M -0.000459276 0.000276096 L 95.781308 0.000276096 " transform="matrix(3.582933, 0, 0, -3.582933, 65.591489, 26.418958)"/>
<path fill="none" stroke-width="0.498" stroke-linecap="butt" stroke-linejoin="miter" stroke="rgb(0%, 0%, 0%)" stroke-opacity="1" stroke-miterlimit="10" d="M -0.0000272785 -0.000314974 L -0.0000272785 17.15785 " transform="matrix(3.582933, 0, 0, -3.582933, 409.66416, 87.002778)"/>
<path fill="none" stroke-width="0.498" stroke-linecap="butt" stroke-linejoin="miter" stroke="rgb(0%, 0%, 0%)" stroke-opacity="1" stroke-miterlimit="10" d="M 0.000479341 -0.000314974 L 0.000479341 4.288681 " transform="matrix(3.582933, 0, 0, -3.582933, 112.510001, 87.002778)"/>
<path fill="none" stroke-width="0.498" stroke-linecap="butt" stroke-linejoin="miter" stroke="rgb(0%, 0%, 0%)" stroke-opacity="1" stroke-miterlimit="10" d="M 0.0000536003 0.000197218 L 18.604965 0.000197218 " transform="matrix(3.582933, 0, 0, -3.582933, 113.402152, 72.524144)"/>
<path fill="none" stroke-width="0.498" stroke-linecap="butt" stroke-linejoin="miter" stroke="rgb(0%, 0%, 0%)" stroke-opacity="1" stroke-miterlimit="10" d="M -0.000461011 -0.000314974 L -0.000461011 4.288681 " transform="matrix(3.582933, 0, 0, -3.582933, 180.954777, 87.002778)"/>
<g clip-path="url(#clip-0)">
<path fill="none" stroke-width="0.498" stroke-linecap="butt" stroke-linejoin="miter" stroke="rgb(0%, 0%, 0%)" stroke-opacity="1" stroke-miterlimit="10" d="M 0.0000836316 0.000339034 L 0.0000836316 21.447501 " transform="matrix(3.582933, 0, 0, -3.582933, 257.683294, 77.583246)"/>
</g>
<g clip-path="url(#clip-1)">
<path fill="none" stroke-width="0.498" stroke-linecap="butt" stroke-linejoin="miter" stroke="rgb(0%, 0%, 0%)" stroke-opacity="1" stroke-miterlimit="10" d="M -0.000342109 -0.00016392 L 113.987309 -0.00016392 " transform="matrix(3.582933, 0, 0, -3.582933, 258.575445, 1.632225)"/>
</g>
<g clip-path="url(#clip-2)">
<path fill="none" stroke-width="0.498" stroke-linecap="butt" stroke-linejoin="miter" stroke="rgb(0%, 0%, 0%)" stroke-opacity="1" stroke-miterlimit="10" d="M -0.000116321 0.000339034 L -0.000116321 21.447501 " transform="matrix(3.582933, 0, 0, -3.582933, 667.875417, 77.583246)"/>
</g>
<path fill="none" stroke-width="0.498" stroke-linecap="butt" stroke-linejoin="miter" stroke="rgb(0%, 0%, 0%)" stroke-opacity="1" stroke-miterlimit="10" d="M 0.000334441 0.000339034 L 0.000334441 8.579422 " transform="matrix(3.582933, 0, 0, -3.582933, 327.127708, 77.583246)"/>
<path fill="none" stroke-width="0.498" stroke-linecap="butt" stroke-linejoin="miter" stroke="rgb(0%, 0%, 0%)" stroke-opacity="1" stroke-miterlimit="10" d="M -0.00000106162 -0.000242799 L 68.149685 -0.000242799 " transform="matrix(3.582933, 0, 0, -3.582933, 328.023441, 47.737411)"/>
<path fill="none" stroke-width="0.498" stroke-linecap="butt" stroke-linejoin="miter" stroke="rgb(0%, 0%, 0%)" stroke-opacity="1" stroke-miterlimit="10" d="M 0.000259093 0.000339034 L 0.000259093 8.579422 " transform="matrix(3.582933, 0, 0, -3.582933, 573.088915, 77.583246)"/>
<path fill="none" stroke-width="0.498" stroke-linecap="butt" stroke-linejoin="miter" stroke="rgb(0%, 0%, 0%)" stroke-opacity="1" stroke-miterlimit="10" d="M 0.0000983262 0.000339034 L 0.0000983262 4.289335 " transform="matrix(3.582933, 0, 0, -3.582933, 494.124648, 77.583246)"/>
<path fill="none" stroke-width="0.498" stroke-linecap="butt" stroke-linejoin="miter" stroke="rgb(0%, 0%, 0%)" stroke-opacity="1" stroke-miterlimit="10" d="M -0.000327414 -0.000239012 L 37.345775 -0.000239012 " transform="matrix(3.582933, 0, 0, -3.582933, 495.016798, 63.104612)"/>
<path fill="none" stroke-width="0.498" stroke-linecap="butt" stroke-linejoin="miter" stroke="rgb(0%, 0%, 0%)" stroke-opacity="1" stroke-miterlimit="10" d="M 0.000529328 0.000339034 L 0.000529328 4.289335 " transform="matrix(3.582933, 0, 0, -3.582933, 629.72076, 77.583246)"/>
<g clip-path="url(#clip-3)">
<g fill="rgb(0%, 0%, 0%)" fill-opacity="1">
<use xlink:href="#glyph-0-0" x="-1.964918" y="119.475102"/>
</g>
</g>
<g fill="rgb(0%, 0%, 0%)" fill-opacity="1">
<use xlink:href="#glyph-1-0" x="11.915366" y="119.475102"/>
</g>
<g fill="rgb(0%, 0%, 0%)" fill-opacity="1">
<use xlink:href="#glyph-2-0" x="29.76554" y="119.475102"/>
</g>
<g fill="rgb(0%, 0%, 0%)" fill-opacity="1">
<use xlink:href="#glyph-1-1" x="40.181127" y="119.475102"/>
</g>
<g fill="rgb(0%, 0%, 0%)" fill-opacity="1">
<use xlink:href="#glyph-3-0" x="39.679516" y="119.475102"/>
</g>
<g fill="rgb(0%, 0%, 0%)" fill-opacity="1">
<use xlink:href="#glyph-4-0" x="58.547243" y="124.828004"/>
</g>
<g fill="rgb(0%, 0%, 0%)" fill-opacity="1">
<use xlink:href="#glyph-5-0" x="76.494156" y="117.690801"/>
</g>
<g fill="rgb(0%, 0%, 0%)" fill-opacity="1">
<use xlink:href="#glyph-1-1" x="88.446822" y="119.475102"/>
</g>
<g fill="rgb(0%, 0%, 0%)" fill-opacity="1">
<use xlink:href="#glyph-3-0" x="87.948794" y="119.475102"/>
</g>
<g fill="rgb(0%, 0%, 0%)" fill-opacity="1">
<use xlink:href="#glyph-4-1" x="106.802189" y="124.828004"/>
</g>
<g fill="rgb(0%, 0%, 0%)" fill-opacity="1">
<use xlink:href="#glyph-5-0" x="123.864118" y="117.690801"/>
</g>
<g fill="rgb(0%, 0%, 0%)" fill-opacity="1">
<use xlink:href="#glyph-1-1" x="142.610025" y="110.05557"/>
</g>
<g fill="rgb(0%, 0%, 0%)" fill-opacity="1">
<use xlink:href="#glyph-6-0" x="135.300841" y="119.475102"/>
</g>
<g fill="rgb(0%, 0%, 0%)" fill-opacity="1">
<use xlink:href="#glyph-7-0" x="159.836769" y="104.738497"/>
</g>
<g fill="rgb(0%, 0%, 0%)" fill-opacity="1">
<use xlink:href="#glyph-1-2" x="174.709525" y="119.475102"/>
</g>
<g fill="rgb(0%, 0%, 0%)" fill-opacity="1">
<use xlink:href="#glyph-3-1" x="188.589809" y="119.475102"/>
</g>
<g fill="rgb(0%, 0%, 0%)" fill-opacity="1">
<use xlink:href="#glyph-1-3" x="207.378711" y="119.475102"/>
</g>
<g fill="rgb(0%, 0%, 0%)" fill-opacity="1">
<use xlink:href="#glyph-1-1" x="228.561013" y="110.05557"/>
</g>
<g fill="rgb(0%, 0%, 0%)" fill-opacity="1">
<use xlink:href="#glyph-6-0" x="221.251829" y="119.475102"/>
</g>
<g fill="rgb(0%, 0%, 0%)" fill-opacity="1">
<use xlink:href="#glyph-1-2" x="245.787756" y="119.475102"/>
</g>
<g fill="rgb(0%, 0%, 0%)" fill-opacity="1">
<use xlink:href="#glyph-3-1" x="259.671623" y="119.475102"/>
</g>
<g fill="rgb(0%, 0%, 0%)" fill-opacity="1">
<use xlink:href="#glyph-1-3" x="278.456943" y="119.475102"/>
</g>
<g fill="rgb(0%, 0%, 0%)" fill-opacity="1">
<use xlink:href="#glyph-1-1" x="297.016537" y="110.05557"/>
</g>
<g fill="rgb(0%, 0%, 0%)" fill-opacity="1">
<use xlink:href="#glyph-6-1" x="292.33006" y="119.475102"/>
</g>
<g fill="rgb(0%, 0%, 0%)" fill-opacity="1">
<use xlink:href="#glyph-1-2" x="313.598353" y="119.475102"/>
</g>
<g fill="rgb(0%, 0%, 0%)" fill-opacity="1">
<use xlink:href="#glyph-3-1" x="327.478636" y="119.475102"/>
</g>
<g fill="rgb(0%, 0%, 0%)" fill-opacity="1">
<use xlink:href="#glyph-1-3" x="346.263956" y="119.475102"/>
</g>
<g fill="rgb(0%, 0%, 0%)" fill-opacity="1">
<use xlink:href="#glyph-1-1" x="367.453424" y="110.05557"/>
</g>
<g fill="rgb(0%, 0%, 0%)" fill-opacity="1">
<use xlink:href="#glyph-6-0" x="360.14424" y="119.475102"/>
</g>
<g fill="rgb(0%, 0%, 0%)" fill-opacity="1">
<use xlink:href="#glyph-7-0" x="384.676584" y="104.738497"/>
</g>
<g fill="rgb(0%, 0%, 0%)" fill-opacity="1">
<use xlink:href="#glyph-1-2" x="399.54934" y="119.475102"/>
</g>
<g fill="rgb(0%, 0%, 0%)" fill-opacity="1">
<use xlink:href="#glyph-3-2" x="413.429624" y="119.475102"/>
</g>
<g fill="rgb(0%, 0%, 0%)" fill-opacity="1">
<use xlink:href="#glyph-1-3" x="439.950497" y="119.475102"/>
</g>
<g fill="rgb(0%, 0%, 0%)" fill-opacity="1">
<use xlink:href="#glyph-1-1" x="461.136381" y="110.05557"/>
</g>
<g fill="rgb(0%, 0%, 0%)" fill-opacity="1">
<use xlink:href="#glyph-6-0" x="453.827197" y="119.475102"/>
</g>
<g fill="rgb(0%, 0%, 0%)" fill-opacity="1">
<use xlink:href="#glyph-1-2" x="478.363125" y="119.475102"/>
</g>
<g fill="rgb(0%, 0%, 0%)" fill-opacity="1">
<use xlink:href="#glyph-3-2" x="492.246992" y="119.475102"/>
</g>
<g fill="rgb(0%, 0%, 0%)" fill-opacity="1">
<use xlink:href="#glyph-1-3" x="518.764281" y="119.475102"/>
</g>
<g fill="rgb(0%, 0%, 0%)" fill-opacity="1">
<use xlink:href="#glyph-1-1" x="537.323876" y="110.05557"/>
</g>
<g fill="rgb(0%, 0%, 0%)" fill-opacity="1">
<use xlink:href="#glyph-6-1" x="532.637399" y="119.475102"/>
</g>
<g fill="rgb(0%, 0%, 0%)" fill-opacity="1">
<use xlink:href="#glyph-1-2" x="553.905691" y="119.475102"/>
</g>
<g fill="rgb(0%, 0%, 0%)" fill-opacity="1">
<use xlink:href="#glyph-3-2" x="567.785975" y="119.475102"/>
</g>
<g fill="rgb(0%, 0%, 0%)" fill-opacity="1">
<use xlink:href="#glyph-1-3" x="594.303265" y="119.475102"/>
<use xlink:href="#glyph-1-1" x="608.684914" y="119.475102"/>
</g>
<g fill="rgb(0%, 0%, 0%)" fill-opacity="1">
<use xlink:href="#glyph-3-0" x="608.187131" y="119.475102"/>
</g>
<g fill="rgb(0%, 0%, 0%)" fill-opacity="1">
<use xlink:href="#glyph-7-0" x="627.054858" y="102.320017"/>
</g>
<g fill="rgb(0%, 0%, 0%)" fill-opacity="1">
<use xlink:href="#glyph-4-1" x="627.054858" y="130.241816"/>
</g>
<g fill="rgb(0%, 0%, 0%)" fill-opacity="1">
<use xlink:href="#glyph-1-1" x="646.409864" y="119.475102"/>
</g>
<g fill="rgb(0%, 0%, 0%)" fill-opacity="1">
<use xlink:href="#glyph-3-0" x="645.911836" y="119.475102"/>
</g>
<g fill="rgb(0%, 0%, 0%)" fill-opacity="1">
<use xlink:href="#glyph-7-0" x="664.765232" y="104.738497"/>
</g>
<g clip-path="url(#clip-4)">
<g fill="rgb(0%, 0%, 0%)" fill-opacity="1">
<use xlink:href="#glyph-4-0" x="664.765232" y="128.299866"/>
</g>
</g>
<g fill="rgb(0%, 0%, 0%)" fill-opacity="1">
<use xlink:href="#glyph-2-0" x="684.500028" y="119.475102"/>
</g>
<g fill="rgb(0%, 0%, 0%)" fill-opacity="1">
<use xlink:href="#glyph-1-0" x="694.417588" y="119.475102"/>
</g>
<g clip-path="url(#clip-5)">
<g fill="rgb(0%, 0%, 0%)" fill-opacity="1">
<use xlink:href="#glyph-0-1" x="712.264179" y="119.475102"/>
</g>
</g>
</svg>
