<?xml version="1.0" encoding="UTF-8"?>
<svg xmlns="http://www.w3.org/2000/svg" xmlns:xlink="http://www.w3.org/1999/xlink" width="241pt" height="24.14pt" viewBox="0 0 241 24.14"><!--latexit:AAAHWnjajVRrbBRVFD4X7pTy3GnL+znYRVopdfvYbbcItlAL5bEFdttuy+I6O3u7
O3R2Zp2ZLZSyyf1BSAgaRPER44uiiZgG0Sgxxp8+UInRFh8/jAk/fCX+AkNMMMYz
s1sEo9WZZO55fOfc85075yaymmrZPt8VMm06FUpmzIp6h5hpqYbe55VNJa2iFvHa
RjbqNRIHmGJb5UCOvRQXPaHwDjbMkm1F0BelMyOmYdicvC6unj1nzd1rq6rvWVez
vvZe/4b7Wtu379izt3/fgzIbOJDJ2rlur57TtIm58zziUm9vKFw7yIatflyLm/R4
FU22rHNl5RXzFyxctHgJn8anc8oFXsJn8FI+k886t2z5ipWrpNV3VfLZfA6fxz28
jC/ly/gKvpJL0YRsMU3VWbdiaIYZyRhJ1m2rtsaiWZPJmYTG9mfklK4OqIpsI91I
UrYZ0krIymDKNHJ6cosT2G8ZOVNhEXbIrmydc3LP2LN/rJzw1XnqGxq7Q+G9WzfH
QmEXGM7KCusSl9VJvtqGhkB9vd/na0DZH2xuqvcHmxoDIBI+dzzQ1BzsL7DT5QyL
FkRm9RbzjDa3REPhLrcNIox7Nm66vw/7Ytmmqqe4uBsTtG12278rZ8tII+x6zrZt
ceIKysQDno6t2zpv6Vhjm41SImczi5fzJbzCKCPtEIMkGKBADjLAQAcbZQ1ksPDd
Bwn0mYhg+N0IdeBz3yyiamAIUSYcBBX9NqRhP4xgjI1WHS0yZjFQYpCHWbhLDn0M
I2XMP4jfFGr7ilYddWd3y82hYJzm7psHCdZgjIE4E2WnLsn151BmrvXfco+4OR0W
w7gmirkyaHVqtf4zbhL5f+McLjYMQLPLQUVOWdfisFOKWRxddSuXbmPldCzrdljC
vqm4MoxwIidPRHJjLJe703PZ9f/kIh2roytFbA5+npJdwrVbaDexAgMrtqY4oRGs
IY162q1mKtwkZgAZpKZEWojIoNXh5Pw9ji/vXAM7Q7vP7OLzz3TxBXxxTyjcYej2
lXCk29PTG+1DPaweZvg/D3RocspCPYSzU9laBe4jinwhX9Szy9BlxcABie0vZhiN
taAafwgHoF1VnDGXzeHRuGNMKHGx/La5SBZGZTTZ8o/2ytaawl7jKU9adW4sW8UK
2i5N773+O9nNl2PKQQ23bcdrZHSwxbkj9IbGLnGtrzboqwv6A8Emv18qKM0NwaZA
Y1EJ4McfAD7XmdqHt3XyVc58xsXHYgoyMGW37JH8SCwt27Eh2cym1arh6vzfLIer
89KdiDu90kYppsl6SmOS70hkKuQRX8wsADGknWm2XDUsrZcOVyPDoYNxseLWzfNX
S88OxVugFMpgKXihGuqhCTphJ+yBMJ5yHo7CI/A0vACvwmswBufhArwJb8FFeAfe
hffhQ7gEn8Bl+Aw+h3G4Al/BN3AVfoRf4BrcJDPJPCKRdaSRbCBtJEQ0opMsyRFO
jpNT5DR5nrxIXibnyQXyBrlILpHL5EvyLfmeXCO/khvkN3qUnqCP0pP0FH2CPkmf
o6/QMfo2fY9+QD+iH9NP6Tj9mn5Hr9If6HV6g94URKFCqBLqhICwSdgqdAohoVuI
CnHhuHBCeFw4LTwlPFOyrsRX0lH4HaaRwgqH4I6nZPufdRcDbw==-->
<defs>
<g>
<g id="glyph-0-0">
<path d="M 3.359375 -9.34375 L 1.5625 -7.515625 L 1.8125 -7.265625 L 3.359375 -8.640625 L 4.921875 -7.265625 L 5.15625 -7.515625 Z M 3.359375 -9.34375 "/>
</g>
<g id="glyph-0-1">
<path d="M 4.453125 3.234375 C 4.453125 3.1875 4.453125 3.171875 4.234375 2.9375 C 2.546875 1.234375 2.109375 -1.3125 2.109375 -3.359375 C 2.109375 -5.703125 2.625 -8.046875 4.28125 -9.734375 C 4.453125 -9.90625 4.453125 -9.921875 4.453125 -9.96875 C 4.453125 -10.0625 4.40625 -10.09375 4.328125 -10.09375 C 4.1875 -10.09375 2.984375 -9.1875 2.1875 -7.46875 C 1.5 -6 1.328125 -4.5 1.328125 -3.359375 C 1.328125 -2.3125 1.484375 -0.6875 2.21875 0.828125 C 3.03125 2.484375 4.1875 3.359375 4.328125 3.359375 C 4.40625 3.359375 4.453125 3.328125 4.453125 3.234375 Z M 4.453125 3.234375 "/>
</g>
<g id="glyph-0-2">
<path d="M 3.890625 -3.359375 C 3.890625 -4.421875 3.75 -6.046875 3 -7.5625 C 2.203125 -9.21875 1.03125 -10.09375 0.90625 -10.09375 C 0.828125 -10.09375 0.765625 -10.046875 0.765625 -9.96875 C 0.765625 -9.921875 0.765625 -9.90625 1.03125 -9.65625 C 2.34375 -8.328125 3.109375 -6.1875 3.109375 -3.359375 C 3.109375 -1.0625 2.609375 1.3125 0.9375 3 C 0.765625 3.171875 0.765625 3.1875 0.765625 3.234375 C 0.765625 3.3125 0.828125 3.359375 0.90625 3.359375 C 1.03125 3.359375 2.25 2.453125 3.046875 0.734375 C 3.734375 -0.734375 3.890625 -2.234375 3.890625 -3.359375 Z M 3.890625 -3.359375 "/>
</g>
<g id="glyph-0-3">
<path d="M 9.25 -4.40625 C 9.453125 -4.40625 9.71875 -4.40625 9.71875 -4.671875 C 9.71875 -4.9375 9.453125 -4.9375 9.265625 -4.9375 L 1.203125 -4.9375 C 1.015625 -4.9375 0.75 -4.9375 0.75 -4.671875 C 0.75 -4.40625 1.015625 -4.40625 1.21875 -4.40625 Z M 9.265625 -1.796875 C 9.453125 -1.796875 9.71875 -1.796875 9.71875 -2.0625 C 9.71875 -2.328125 9.453125 -2.328125 9.25 -2.328125 L 1.21875 -2.328125 C 1.015625 -2.328125 0.75 -2.328125 0.75 -2.0625 C 0.75 -1.796875 1.015625 -1.796875 1.203125 -1.796875 Z M 9.265625 -1.796875 "/>
</g>
<g id="glyph-0-4">
<path d="M 6.203125 -4.3125 C 6.203125 -5.390625 6.125 -6.46875 5.65625 -7.46875 C 5.03125 -8.75 3.9375 -8.96875 3.359375 -8.96875 C 2.5625 -8.96875 1.578125 -8.625 1.03125 -7.375 C 0.59375 -6.4375 0.53125 -5.390625 0.53125 -4.3125 C 0.53125 -3.296875 0.578125 -2.09375 1.125 -1.0625 C 1.703125 0.03125 2.6875 0.296875 3.359375 0.296875 C 4.078125 0.296875 5.109375 0.015625 5.703125 -1.265625 C 6.125 -2.203125 6.203125 -3.25 6.203125 -4.3125 Z M 3.359375 0 C 2.828125 0 2.03125 -0.34375 1.796875 -1.625 C 1.640625 -2.4375 1.640625 -3.671875 1.640625 -4.46875 C 1.640625 -5.328125 1.640625 -6.21875 1.75 -6.953125 C 2 -8.546875 3.015625 -8.671875 3.359375 -8.671875 C 3.796875 -8.671875 4.6875 -8.4375 4.9375 -7.09375 C 5.078125 -6.34375 5.078125 -5.3125 5.078125 -4.46875 C 5.078125 -3.46875 5.078125 -2.546875 4.921875 -1.6875 C 4.734375 -0.40625 3.953125 0 3.359375 0 Z M 3.359375 0 "/>
</g>
<g id="glyph-1-0">
<path d="M 2.296875 2.296875 C 2.234375 2.46875 2.21875 2.484375 2.21875 2.5625 C 2.21875 2.859375 2.484375 2.9375 2.609375 2.9375 C 2.6875 2.9375 2.984375 2.890625 3.109375 2.59375 C 3.15625 2.484375 3.21875 2.03125 3.578125 0.125 C 3.703125 0.140625 3.796875 0.140625 4.03125 0.140625 C 6.265625 0.140625 8.34375 -1.96875 8.34375 -4.09375 C 8.34375 -5.140625 7.8125 -5.953125 6.796875 -5.953125 C 4.84375 -5.953125 4.046875 -3.34375 3.234375 -0.71875 C 1.78125 -0.984375 1.03125 -1.734375 1.03125 -2.703125 C 1.03125 -3.078125 1.328125 -4.5625 2.140625 -5.5 C 2.25 -5.609375 2.25 -5.640625 2.25 -5.671875 C 2.25 -5.71875 2.21875 -5.8125 2.09375 -5.8125 C 1.703125 -5.8125 0.671875 -3.859375 0.671875 -2.5625 C 0.671875 -1.296875 1.5625 -0.3125 3 0.03125 Z M 4.140625 -0.640625 C 4.046875 -0.640625 4.015625 -0.640625 3.90625 -0.640625 C 3.75 -0.640625 3.734375 -0.65625 3.734375 -0.703125 C 3.734375 -0.734375 3.953125 -1.953125 4 -2.15625 C 4.421875 -3.875 5.46875 -5.171875 6.671875 -5.171875 C 7.59375 -5.171875 7.953125 -4.4375 7.953125 -3.796875 C 7.953125 -2.28125 6.21875 -0.640625 4.140625 -0.640625 Z M 4.140625 -0.640625 "/>
</g>
<g id="glyph-2-0">
<path d="M 6.546875 -5.125 C 6.59375 -5.3125 6.59375 -5.34375 6.59375 -5.4375 C 6.59375 -5.6875 6.40625 -5.8125 6.203125 -5.8125 C 6.078125 -5.8125 5.859375 -5.71875 5.734375 -5.515625 C 5.703125 -5.453125 5.609375 -5.03125 5.546875 -4.796875 C 5.453125 -4.4375 5.359375 -4.078125 5.28125 -3.71875 L 4.671875 -1.296875 C 4.625 -1.09375 4.046875 -0.140625 3.15625 -0.140625 C 2.46875 -0.140625 2.3125 -0.734375 2.3125 -1.234375 C 2.3125 -1.859375 2.546875 -2.6875 3 -3.875 C 3.21875 -4.4375 3.265625 -4.578125 3.265625 -4.84375 C 3.265625 -5.453125 2.84375 -5.953125 2.171875 -5.953125 C 0.890625 -5.953125 0.390625 -4 0.390625 -3.875 C 0.390625 -3.75 0.53125 -3.75 0.546875 -3.75 C 0.6875 -3.75 0.703125 -3.765625 0.765625 -3.984375 C 1.125 -5.25 1.671875 -5.65625 2.125 -5.65625 C 2.234375 -5.65625 2.46875 -5.65625 2.46875 -5.21875 C 2.46875 -4.890625 2.328125 -4.53125 2.234375 -4.28125 C 1.703125 -2.859375 1.453125 -2.09375 1.453125 -1.453125 C 1.453125 -0.25 2.296875 0.140625 3.09375 0.140625 C 3.625 0.140625 4.078125 -0.078125 4.453125 -0.453125 C 4.28125 0.25 4.125 0.90625 3.578125 1.609375 C 3.234375 2.078125 2.71875 2.46875 2.09375 2.46875 C 1.90625 2.46875 1.3125 2.421875 1.078125 1.90625 C 1.296875 1.90625 1.46875 1.90625 1.65625 1.734375 C 1.796875 1.609375 1.921875 1.4375 1.921875 1.1875 C 1.921875 0.765625 1.5625 0.71875 1.421875 0.71875 C 1.125 0.71875 0.671875 0.921875 0.671875 1.59375 C 0.671875 2.265625 1.265625 2.765625 2.09375 2.765625 C 3.484375 2.765625 4.875 1.53125 5.25 0.015625 Z M 6.546875 -5.125 "/>
</g>
<g id="glyph-2-1">
<path d="M 1.796875 -1.125 C 2.515625 -1.90625 2.90625 -2.234375 3.390625 -2.65625 C 3.390625 -2.671875 4.234375 -3.375 4.71875 -3.859375 C 6 -5.125 6.296875 -5.765625 6.296875 -5.8125 C 6.296875 -5.953125 6.171875 -5.953125 6.140625 -5.953125 C 6.046875 -5.953125 6 -5.921875 5.9375 -5.8125 C 5.53125 -5.15625 5.25 -4.9375 4.921875 -4.9375 C 4.609375 -4.9375 4.4375 -5.140625 4.25 -5.375 C 3.984375 -5.6875 3.75 -5.953125 3.3125 -5.953125 C 2.296875 -5.953125 1.6875 -4.703125 1.6875 -4.421875 C 1.6875 -4.34375 1.71875 -4.265625 1.84375 -4.265625 C 1.96875 -4.265625 2 -4.34375 2.015625 -4.421875 C 2.28125 -5.03125 3.0625 -5.046875 3.171875 -5.046875 C 3.453125 -5.046875 3.703125 -4.953125 4.015625 -4.84375 C 4.546875 -4.640625 4.703125 -4.640625 5.046875 -4.640625 C 4.5625 -4.0625 3.4375 -3.09375 3.171875 -2.875 L 1.96875 -1.75 C 1.046875 -0.84375 0.578125 -0.078125 0.578125 0.015625 C 0.578125 0.140625 0.71875 0.140625 0.734375 0.140625 C 0.84375 0.140625 0.875 0.125 0.953125 -0.03125 C 1.265625 -0.5 1.671875 -0.859375 2.09375 -0.859375 C 2.40625 -0.859375 2.546875 -0.734375 2.875 -0.34375 C 3.109375 -0.0625 3.359375 0.140625 3.75 0.140625 C 5.078125 0.140625 5.859375 -1.5625 5.859375 -1.921875 C 5.859375 -2 5.8125 -2.0625 5.703125 -2.0625 C 5.578125 -2.0625 5.546875 -1.984375 5.515625 -1.890625 C 5.203125 -1.015625 4.34375 -0.75 3.890625 -0.75 C 3.625 -0.75 3.375 -0.828125 3.09375 -0.921875 C 2.640625 -1.109375 2.4375 -1.15625 2.15625 -1.15625 C 2.125 -1.15625 1.90625 -1.15625 1.796875 -1.125 Z M 1.796875 -1.125 "/>
</g>
<g id="glyph-2-2">
<path d="M 5.75 -8.171875 C 5.84375 -8.546875 5.90625 -8.640625 6.0625 -8.671875 C 6.1875 -8.703125 6.625 -8.703125 6.90625 -8.703125 C 8.265625 -8.703125 8.875 -8.640625 8.875 -7.59375 C 8.875 -7.390625 8.828125 -6.875 8.765625 -6.515625 C 8.75 -6.46875 8.734375 -6.296875 8.734375 -6.265625 C 8.734375 -6.1875 8.765625 -6.09375 8.890625 -6.09375 C 9.03125 -6.09375 9.0625 -6.203125 9.09375 -6.390625 L 9.453125 -8.734375 C 9.46875 -8.796875 9.484375 -8.9375 9.484375 -8.96875 C 9.484375 -9.125 9.34375 -9.125 9.125 -9.125 L 1.640625 -9.125 C 1.3125 -9.125 1.3125 -9.109375 1.21875 -8.84375 L 0.40625 -6.484375 C 0.390625 -6.453125 0.328125 -6.265625 0.328125 -6.234375 C 0.328125 -6.15625 0.390625 -6.09375 0.484375 -6.09375 C 0.625 -6.09375 0.640625 -6.15625 0.71875 -6.375 C 1.4375 -8.453125 1.796875 -8.703125 3.78125 -8.703125 L 4.3125 -8.703125 C 4.6875 -8.703125 4.6875 -8.640625 4.6875 -8.546875 C 4.6875 -8.453125 4.640625 -8.296875 4.640625 -8.25 L 2.828125 -1.0625 C 2.703125 -0.5625 2.671875 -0.421875 1.21875 -0.421875 C 0.734375 -0.421875 0.65625 -0.421875 0.65625 -0.15625 C 0.65625 0 0.8125 0 0.890625 0 C 1.25 0 1.625 -0.03125 2 -0.03125 C 2.375 -0.03125 2.765625 -0.046875 3.140625 -0.046875 C 3.515625 -0.046875 3.890625 -0.03125 4.25 -0.03125 C 4.640625 -0.03125 5.046875 0 5.421875 0 C 5.5625 0 5.71875 0 5.71875 -0.265625 C 5.71875 -0.421875 5.609375 -0.421875 5.265625 -0.421875 C 4.921875 -0.421875 4.75 -0.421875 4.40625 -0.4375 C 4.015625 -0.484375 3.90625 -0.53125 3.90625 -0.734375 C 3.90625 -0.75 3.90625 -0.828125 3.953125 -1.03125 Z M 5.75 -8.171875 "/>
</g>
<g id="glyph-3-0">
<path d="M 4.421875 -9.59375 C 4.484375 -9.734375 4.484375 -9.765625 4.484375 -9.828125 C 4.484375 -9.984375 4.359375 -10.09375 4.21875 -10.09375 C 4.09375 -10.09375 4 -10.03125 3.90625 -9.796875 L 1.546875 -3.609375 C 1.515625 -3.53125 1.484375 -3.453125 1.484375 -3.359375 C 1.484375 -3.328125 1.484375 -3.296875 1.546875 -3.140625 L 3.90625 3.046875 C 3.953125 3.1875 4.03125 3.359375 4.21875 3.359375 C 4.359375 3.359375 4.484375 3.25 4.484375 3.09375 C 4.484375 3.0625 4.484375 3.03125 4.421875 2.875 L 2.03125 -3.359375 Z M 4.421875 -9.59375 "/>
</g>
<g id="glyph-3-1">
<path d="M 3.671875 -3.140625 C 3.75 -3.296875 3.75 -3.328125 3.75 -3.359375 C 3.75 -3.40625 3.75 -3.4375 3.671875 -3.59375 L 1.3125 -9.796875 C 1.234375 -10.015625 1.15625 -10.09375 1.015625 -10.09375 C 0.859375 -10.09375 0.734375 -9.984375 0.734375 -9.828125 C 0.734375 -9.796875 0.734375 -9.765625 0.8125 -9.609375 L 3.1875 -3.359375 L 0.8125 2.859375 C 0.734375 3 0.734375 3.03125 0.734375 3.09375 C 0.734375 3.25 0.859375 3.359375 1.015625 3.359375 C 1.1875 3.359375 1.234375 3.234375 1.296875 3.09375 Z M 3.671875 -3.140625 "/>
</g>
<g id="glyph-3-2">
<path d="M 8.875 -3.09375 C 9.109375 -3.09375 9.34375 -3.09375 9.34375 -3.359375 C 9.34375 -3.640625 9.109375 -3.640625 8.875 -3.640625 L 1.59375 -3.640625 C 1.359375 -3.640625 1.125 -3.640625 1.125 -3.359375 C 1.125 -3.09375 1.359375 -3.09375 1.59375 -3.09375 Z M 8.875 -3.09375 "/>
</g>
<g id="glyph-4-0">
<path d="M 2.140625 -9.609375 C 2.140625 -9.859375 2.140625 -10.09375 1.875 -10.09375 C 1.609375 -10.09375 1.609375 -9.859375 1.609375 -9.609375 L 1.609375 2.875 C 1.609375 3.125 1.609375 3.359375 1.875 3.359375 C 2.140625 3.359375 2.140625 3.125 2.140625 2.875 Z M 2.140625 -9.609375 "/>
</g>
<g id="glyph-5-0">
<path d="M 5.953125 -9.40625 C 5.859375 -9.578125 5.828125 -9.640625 5.609375 -9.640625 C 5.375 -9.640625 5.34375 -9.578125 5.25 -9.40625 L 0.703125 -0.265625 C 0.640625 -0.140625 0.640625 -0.125 0.640625 -0.109375 C 0.640625 0 0.71875 0 0.921875 0 L 10.28125 0 C 10.484375 0 10.578125 0 10.578125 -0.109375 C 10.578125 -0.125 10.578125 -0.140625 10.5 -0.265625 Z M 5.171875 -8.296875 L 8.796875 -1.03125 L 1.53125 -1.03125 Z M 5.171875 -8.296875 "/>
</g>
</g>
<clipPath id="clip-0">
<path clip-rule="nonzero" d="M 16 0.0664062 L 18 0.0664062 L 18 7 L 16 7 Z M 16 0.0664062 "/>
</clipPath>
<clipPath id="clip-1">
<path clip-rule="nonzero" d="M 17 0.0664062 L 44 0.0664062 L 44 2 L 17 2 Z M 17 0.0664062 "/>
</clipPath>
<clipPath id="clip-2">
<path clip-rule="nonzero" d="M 43 0.0664062 L 45 0.0664062 L 45 7 L 43 7 Z M 43 0.0664062 "/>
</clipPath>
<clipPath id="clip-3">
<path clip-rule="nonzero" d="M 4.144531 13 L 12 13 L 12 23 L 4.144531 23 Z M 4.144531 13 "/>
</clipPath>
<clipPath id="clip-4">
<path clip-rule="nonzero" d="M 233 9 L 236.511719 9 L 236.511719 23 L 233 23 Z M 233 9 "/>
</clipPath>
</defs>
<g clip-path="url(#clip-0)">
<path fill="none" stroke-width="0.498" stroke-linecap="butt" stroke-linejoin="miter" stroke="rgb(0%, 0%, 0%)" stroke-opacity="1" stroke-miterlimit="10" d="M 0.000178379 0.00140185 L 0.000178379 4.289539 " transform="matrix(1.35184, 0, 0, -1.35184, 17.007571, 6.61127)"/>
</g>
<g clip-path="url(#clip-1)">
<path fill="none" stroke-width="0.498" stroke-linecap="butt" stroke-linejoin="miter" stroke="rgb(0%, 0%, 0%)" stroke-opacity="1" stroke-miterlimit="10" d="M -0.00031773 0.000034871 L 19.42344 0.000034871 " transform="matrix(1.35184, 0, 0, -1.35184, 17.34418, 1.148485)"/>
</g>
<g clip-path="url(#clip-2)">
<path fill="none" stroke-width="0.498" stroke-linecap="butt" stroke-linejoin="miter" stroke="rgb(0%, 0%, 0%)" stroke-opacity="1" stroke-miterlimit="10" d="M -0.0000562197 0.00140185 L -0.0000562197 4.289539 " transform="matrix(1.35184, 0, 0, -1.35184, 43.937576, 6.61127)"/>
</g>
<g fill="rgb(0%, 0%, 0%)" fill-opacity="1">
<use xlink:href="#glyph-0-0" x="5.645549" y="19.61037"/>
</g>
<g clip-path="url(#clip-3)">
<g fill="rgb(0%, 0%, 0%)" fill-opacity="1">
<use xlink:href="#glyph-1-0" x="3.490716" y="19.61037"/>
</g>
</g>
<g fill="rgb(0%, 0%, 0%)" fill-opacity="1">
<use xlink:href="#glyph-0-1" x="12.302009" y="19.61037"/>
</g>
<g fill="rgb(0%, 0%, 0%)" fill-opacity="1">
<use xlink:href="#glyph-2-0" x="17.539038" y="19.61037"/>
</g>
<g fill="rgb(0%, 0%, 0%)" fill-opacity="1">
<use xlink:href="#glyph-0-2" x="24.613216" y="19.61037"/>
<use xlink:href="#glyph-0-0" x="32.019182" y="19.61037"/>
</g>
<g fill="rgb(0%, 0%, 0%)" fill-opacity="1">
<use xlink:href="#glyph-1-0" x="29.851596" y="19.61037"/>
</g>
<g fill="rgb(0%, 0%, 0%)" fill-opacity="1">
<use xlink:href="#glyph-0-1" x="38.661538" y="19.61037"/>
</g>
<g fill="rgb(0%, 0%, 0%)" fill-opacity="1">
<use xlink:href="#glyph-2-1" x="43.899918" y="19.61037"/>
</g>
<g fill="rgb(0%, 0%, 0%)" fill-opacity="1">
<use xlink:href="#glyph-0-2" x="50.75645" y="19.61037"/>
<use xlink:href="#glyph-0-3" x="59.738153" y="19.61037"/>
</g>
<g fill="rgb(0%, 0%, 0%)" fill-opacity="1">
<use xlink:href="#glyph-3-0" x="73.956728" y="19.61037"/>
</g>
<g fill="rgb(0%, 0%, 0%)" fill-opacity="1">
<use xlink:href="#glyph-0-4" x="79.195108" y="19.61037"/>
</g>
<g fill="rgb(0%, 0%, 0%)" fill-opacity="1">
<use xlink:href="#glyph-4-0" x="85.928623" y="19.61037"/>
</g>
<g fill="rgb(0%, 0%, 0%)" fill-opacity="1">
<use xlink:href="#glyph-2-2" x="89.670516" y="19.61037"/>
</g>
<g fill="rgb(0%, 0%, 0%)" fill-opacity="1">
<use xlink:href="#glyph-0-0" x="101.56806" y="19.61037"/>
</g>
<g fill="rgb(0%, 0%, 0%)" fill-opacity="1">
<use xlink:href="#glyph-1-0" x="99.413227" y="19.61037"/>
</g>
<g fill="rgb(0%, 0%, 0%)" fill-opacity="1">
<use xlink:href="#glyph-0-1" x="108.223168" y="19.61037"/>
</g>
<g fill="rgb(0%, 0%, 0%)" fill-opacity="1">
<use xlink:href="#glyph-2-0" x="113.461548" y="19.61037"/>
</g>
<g fill="rgb(0%, 0%, 0%)" fill-opacity="1">
<use xlink:href="#glyph-0-2" x="120.535727" y="19.61037"/>
<use xlink:href="#glyph-0-0" x="127.941693" y="19.61037"/>
</g>
<g fill="rgb(0%, 0%, 0%)" fill-opacity="1">
<use xlink:href="#glyph-1-0" x="125.772755" y="19.61037"/>
</g>
<g fill="rgb(0%, 0%, 0%)" fill-opacity="1">
<use xlink:href="#glyph-0-1" x="134.584048" y="19.61037"/>
</g>
<g fill="rgb(0%, 0%, 0%)" fill-opacity="1">
<use xlink:href="#glyph-2-1" x="139.821077" y="19.61037"/>
</g>
<g fill="rgb(0%, 0%, 0%)" fill-opacity="1">
<use xlink:href="#glyph-0-2" x="146.677609" y="19.61037"/>
</g>
<g fill="rgb(0%, 0%, 0%)" fill-opacity="1">
<use xlink:href="#glyph-4-0" x="151.915989" y="19.61037"/>
</g>
<g fill="rgb(0%, 0%, 0%)" fill-opacity="1">
<use xlink:href="#glyph-0-4" x="155.65653" y="19.61037"/>
</g>
<g fill="rgb(0%, 0%, 0%)" fill-opacity="1">
<use xlink:href="#glyph-3-1" x="162.391397" y="19.61037"/>
</g>
<g fill="rgb(0%, 0%, 0%)" fill-opacity="1">
<use xlink:href="#glyph-0-3" x="171.373022" y="19.61037"/>
</g>
<g fill="rgb(0%, 0%, 0%)" fill-opacity="1">
<use xlink:href="#glyph-5-0" x="185.592369" y="19.61037"/>
</g>
<g fill="rgb(0%, 0%, 0%)" fill-opacity="1">
<use xlink:href="#glyph-0-1" x="196.808387" y="19.61037"/>
</g>
<g fill="rgb(0%, 0%, 0%)" fill-opacity="1">
<use xlink:href="#glyph-2-0" x="202.053031" y="19.61037"/>
</g>
<g fill="rgb(0%, 0%, 0%)" fill-opacity="1">
<use xlink:href="#glyph-3-2" x="212.130998" y="19.61037"/>
</g>
<g fill="rgb(0%, 0%, 0%)" fill-opacity="1">
<use xlink:href="#glyph-2-1" x="225.595325" y="19.61037"/>
</g>
<g clip-path="url(#clip-4)">
<g fill="rgb(0%, 0%, 0%)" fill-opacity="1">
<use xlink:href="#glyph-0-2" x="232.451857" y="19.61037"/>
</g>
</g>
</svg>
